<?xml version="1.0" encoding="utf-8"?>
<!-- Generator: Adobe Illustrator 16.0.0, SVG Export Plug-In . SVG Version: 6.00 Build 0)  -->
<!DOCTYPE svg PUBLIC "-//W3C//DTD SVG 1.0//EN" "http://www.w3.org/TR/2001/REC-SVG-20010904/DTD/svg10.dtd">
<svg version="1.0" xmlns="http://www.w3.org/2000/svg" xmlns:xlink="http://www.w3.org/1999/xlink" x="0px" y="0px"
	 width="4546.13px" height="3791.242px" viewBox="0 0 4546.13 3791.242" enable-background="new 0 0 4546.13 3791.242"
	 xml:space="preserve">
<g id="A" display="none">
	<g id="Text" display="inline">
		<g>
			<rect x="546.13" y="1915.734" fill="none" width="4000" height="976.525"/>
			<path d="M783.557,2290.734v-355.469h124.512c43.129,0,75.844,8.263,98.145,24.78c22.297,16.521,33.447,40.733,33.447,72.632
				c0,17.418-4.479,32.757-13.428,46.021c-8.953,13.268-21.404,22.991-37.354,29.175c18.227,4.559,32.593,13.756,43.091,27.588
				c10.498,13.836,15.747,30.762,15.747,50.781c0,34.18-10.906,60.059-32.715,77.637c-21.812,17.578-52.898,26.531-93.262,26.855
				H783.557z M856.799,2084.191h54.199c36.945-0.648,55.42-15.381,55.42-44.189c0-16.113-4.681-27.71-14.038-34.79
				c-9.361-7.08-24.132-10.62-44.312-10.62h-51.27V2084.191z M856.799,2135.949v95.947h62.744c17.25,0,30.72-4.108,40.405-12.329
				c9.682-8.217,14.526-19.569,14.526-34.058c0-32.551-16.846-49.072-50.537-49.561H856.799z"/>
			<path d="M1246.448,2092.736c-9.605-1.301-18.066-1.953-25.391-1.953c-26.695,0-44.189,9.033-52.49,27.1v172.852h-70.557v-264.16
				h66.65l1.953,31.494c14.16-24.25,33.771-36.377,58.838-36.377c7.812,0,15.137,1.061,21.973,3.174L1246.448,2092.736z"/>
			<path d="M1279.895,1958.215c0-10.578,3.54-19.287,10.62-26.123s16.724-10.254,28.931-10.254c12.043,0,21.645,3.418,28.809,10.254
				c7.16,6.836,10.742,15.545,10.742,26.123c0,10.742-3.624,19.531-10.864,26.367c-7.244,6.836-16.808,10.254-28.687,10.254
				c-11.883,0-21.446-3.418-28.687-10.254C1283.515,1977.746,1279.895,1968.957,1279.895,1958.215z M1354.846,2290.734h-70.801
				v-264.16h70.801V2290.734z"/>
			<path d="M1401.965,2156.701c0-41.176,9.235-73.975,27.71-98.389c18.471-24.414,43.739-36.621,75.806-36.621
				c25.715,0,46.955,9.605,63.721,28.809v-134.766h70.801v375h-63.721l-3.418-28.076c-17.578,21.973-40.203,32.959-67.871,32.959
				c-31.09,0-56.03-12.245-74.829-36.743C1411.365,2234.38,1401.965,2200.322,1401.965,2156.701z M1472.522,2161.954
				c0,24.78,4.311,43.77,12.939,56.973c8.625,13.206,21.156,19.806,37.598,19.806c21.809,0,37.189-9.209,46.143-27.63v-104.408
				c-8.789-18.417-24.01-27.63-45.654-27.63C1489.528,2079.064,1472.522,2106.694,1472.522,2161.954z"/>
			<path d="M1684.436,2156.701c0-40.527,9.644-73.158,28.931-97.9c19.287-24.738,45.288-37.109,78.003-37.109
				c28.969,0,51.514,9.93,67.627,29.785l2.93-24.902h63.965v255.371c0,23.109-5.249,43.213-15.747,60.303
				s-25.269,30.109-44.312,39.062c-19.043,8.949-41.344,13.428-66.895,13.428c-19.371,0-38.25-3.868-56.641-11.597
				c-18.395-7.732-32.311-17.7-41.748-29.907l31.25-42.969c17.578,19.691,38.898,29.541,63.965,29.541
				c18.715,0,33.283-5.005,43.701-15.015c10.414-10.01,15.625-24.212,15.625-42.603v-14.16
				c-16.277,18.395-37.682,27.588-64.209,27.588c-31.738,0-57.415-12.409-77.026-37.231c-19.615-24.818-29.419-57.739-29.419-98.755
				V2156.701z M1754.993,2161.954c0,23.964,4.799,42.751,14.404,56.362c9.602,13.61,22.785,20.416,39.551,20.416
				c21.484,0,36.865-8.068,46.143-24.208v-111.252c-9.441-16.136-24.658-24.208-45.654-24.208c-16.93,0-30.235,6.932-39.917,20.786
				C1759.833,2113.706,1754.993,2134.408,1754.993,2161.954z"/>
			<path d="M1979.602,1958.215c0-10.578,3.54-19.287,10.62-26.123s16.724-10.254,28.931-10.254c12.043,0,21.645,3.418,28.809,10.254
				c7.16,6.836,10.742,15.545,10.742,26.123c0,10.742-3.624,19.531-10.864,26.367c-7.244,6.836-16.808,10.254-28.687,10.254
				c-11.883,0-21.446-3.418-28.687-10.254C1983.222,1977.746,1979.602,1968.957,1979.602,1958.215z M2054.553,2290.734h-70.801
				v-264.16h70.801V2290.734z"/>
			<path d="M2177.6,2026.574l2.197,30.518c18.879-23.598,44.189-35.4,75.928-35.4c27.992,0,48.828,8.221,62.5,24.658
				c13.672,16.441,20.668,41.016,20.996,73.73v170.654h-70.557v-168.945c0-14.973-3.258-25.837-9.766-32.593
				c-6.512-6.752-17.334-10.132-32.471-10.132c-19.859,0-34.752,8.465-44.678,25.391v186.279h-70.557v-264.16H2177.6z"/>
			<path d="M2382.434,2156.701c0-40.527,9.644-73.158,28.931-97.9c19.287-24.738,45.288-37.109,78.003-37.109
				c28.969,0,51.514,9.93,67.627,29.785l2.93-24.902h63.965v255.371c0,23.109-5.249,43.213-15.747,60.303
				s-25.269,30.109-44.312,39.062c-19.043,8.949-41.344,13.428-66.895,13.428c-19.371,0-38.25-3.868-56.641-11.597
				c-18.395-7.732-32.311-17.7-41.748-29.907l31.25-42.969c17.578,19.691,38.898,29.541,63.965,29.541
				c18.715,0,33.283-5.005,43.701-15.015c10.414-10.01,15.625-24.212,15.625-42.603v-14.16
				c-16.277,18.395-37.682,27.588-64.209,27.588c-31.738,0-57.415-12.409-77.026-37.231c-19.615-24.818-29.419-57.739-29.419-98.755
				V2156.701z M2452.991,2161.954c0,23.964,4.799,42.751,14.404,56.362c9.602,13.61,22.785,20.416,39.551,20.416
				c21.484,0,36.865-8.068,46.143-24.208v-111.252c-9.441-16.136-24.658-24.208-45.654-24.208c-16.93,0-30.235,6.932-39.917,20.786
				C2457.832,2113.706,2452.991,2134.408,2452.991,2161.954z"/>
			<path d="M3021.106,2136.682h-140.625v95.215h165.039v58.838h-238.281v-355.469h237.793v59.326h-164.551v84.717h140.625V2136.682z
				"/>
			<path d="M3237.903,2263.879c-17.418,21.16-41.504,31.738-72.266,31.738c-28.32,0-49.927-8.137-64.819-24.414
				c-14.893-16.273-22.503-40.119-22.827-71.533v-173.096h70.557v170.853c0,27.538,12.531,41.306,37.598,41.306
				c23.926,0,40.363-8.309,49.316-24.933v-187.226h70.801v264.16h-66.406L3237.903,2263.879z"/>
			<path d="M3507.922,2092.736c-9.605-1.301-18.066-1.953-25.391-1.953c-26.695,0-44.189,9.033-52.49,27.1v172.852h-70.557v-264.16
				h66.65l1.953,31.494c14.16-24.25,33.771-36.377,58.838-36.377c7.812,0,15.137,1.061,21.973,3.174L3507.922,2092.736z"/>
			<path d="M3522.083,2156.213c0-26.203,5.043-49.561,15.137-70.068c10.09-20.508,24.616-36.377,43.579-47.607
				c18.959-11.23,40.974-16.846,66.04-16.846c35.645,0,64.735,10.906,87.28,32.715c22.541,21.812,35.114,51.434,37.72,88.867
				l0.488,18.066c0,40.527-11.314,73.04-33.936,97.534c-22.625,24.498-52.979,36.743-91.064,36.743s-68.481-12.207-91.187-36.621
				s-34.058-57.617-34.058-99.609V2156.213z M3592.639,2161.222c0,25.104,4.719,44.3,14.16,57.583
				c9.438,13.286,22.949,19.928,40.527,19.928c17.09,0,30.434-6.562,40.039-19.684c9.602-13.123,14.404-34.107,14.404-62.962
				c0-24.612-4.803-43.686-14.404-57.217c-9.605-13.526-23.113-20.294-40.527-20.294c-17.254,0-30.602,6.726-40.039,20.172
				C3597.358,2112.199,3592.639,2133.023,3592.639,2161.222z"/>
			<path d="M4053.577,2161.096c0,40.691-9.239,73.284-27.71,97.778c-18.475,24.498-43.419,36.743-74.829,36.743
				c-26.695,0-48.26-9.277-64.697-27.832v124.512h-70.557v-365.723h65.43l2.441,25.879c17.09-20.508,39.387-30.762,66.895-30.762
				c32.551,0,57.861,12.047,75.928,36.133c18.066,24.09,27.1,57.293,27.1,99.609V2161.096z M3983.02,2155.969
				c0-24.574-4.356-43.537-13.062-56.885c-8.709-13.344-21.362-20.02-37.964-20.02c-22.137,0-37.354,8.465-45.654,25.391v108.154
				c8.625,17.418,24.006,26.123,46.143,26.123C3966.174,2238.732,3983.02,2211.145,3983.02,2155.969z"/>
			<path d="M4218.86,2295.617c-38.738,0-70.274-11.879-94.604-35.645c-24.334-23.762-36.499-55.42-36.499-94.971v-6.836
				c0-26.527,5.127-50.251,15.381-71.167c10.254-20.912,24.78-37.025,43.579-48.34c18.799-11.311,40.241-16.968,64.331-16.968
				c36.133,0,64.575,11.395,85.327,34.18c20.752,22.789,31.128,55.096,31.128,96.924v28.809H4159.29
				c2.277,17.254,9.155,31.09,20.63,41.504c11.475,10.418,26.001,15.625,43.579,15.625c27.18,0,48.42-9.846,63.721-29.541
				l34.668,38.818c-10.582,14.977-24.902,26.653-42.969,35.034S4240.833,2295.617,4218.86,2295.617z M4210.803,2078.576
				c-14,0-25.353,4.741-34.058,14.225c-8.709,9.483-14.282,23.053-16.724,40.707h98.145v-5.642
				c-0.328-15.694-4.559-27.832-12.695-36.415C4237.331,2082.868,4225.776,2078.576,4210.803,2078.576z"/>
		</g>
	</g>
	<g id="Punkte" display="inline">
		<circle cx="1319.351" cy="1957.84" r="42.105"/>
		<circle cx="1011.779" cy="1733.54" r="50"/>
		<circle cx="1232.573" cy="1431.099" r="42.105"/>
		<circle cx="635.688" cy="1794.856" r="42.105"/>
		<circle cx="2357.229" cy="1820.646" r="50"/>
		<circle cx="3010.771" cy="1513.965" r="42.105"/>
		<circle cx="2810.536" cy="1234.536" r="42.105"/>
		<circle cx="854.984" cy="1381.75" r="37.5"/>
		<circle cx="1672.861" cy="1818.651" r="55"/>
		<circle cx="1602.129" cy="1336.089" r="45"/>
		<circle cx="2735.158" cy="1776.546" r="42.105"/>
		<circle cx="3284.234" cy="1777.147" r="42.105"/>
		<circle cx="3651.132" cy="1671.523" r="50"/>
		<circle cx="4171.635" cy="1502.911" r="40"/>
		<circle cx="4179.174" cy="1207.609" r="45"/>
		<circle cx="3827.741" cy="1334.298" r="60"/>
		<circle cx="3187.38" cy="1176.74" r="55"/>
		<circle cx="4015.492" cy="1734.047" r="45"/>
		<circle cx="2018.317" cy="1957.84" r="42.105"/>
	</g>
	<g id="Pfade" display="inline">
		<g>
			<path d="M1000.924,1735.309c0,0-1.435,0.451-4.135,1.226c-2.705,0.75-6.658,1.936-11.716,3.278
				c-5.053,1.371-11.2,2.965-18.262,4.727c-7.062,1.76-15.042,3.667-23.759,5.667c-8.719,1.989-18.177,4.068-28.196,6.167
				c-10.021,2.086-20.598,4.225-31.562,6.301c-5.476,1.075-11.056,2.085-16.705,3.109c-5.646,1.039-11.364,2.072-17.138,3.043
				c-11.535,2.032-23.283,3.903-35.027,5.799c-11.761,1.786-23.517,3.609-35.121,5.199c-2.899,0.409-5.787,0.816-8.66,1.222
				c-2.877,0.377-5.741,0.752-8.587,1.125c-5.692,0.744-11.312,1.503-16.854,2.15c-11.073,1.374-21.798,2.573-31.977,3.651
				c-10.182,1.061-19.822,1.973-28.732,2.744c-8.913,0.755-17.093,1.378-24.355,1.858c-7.263,0.477-13.604,0.835-18.834,1.072
				c-5.227,0.264-9.354,0.342-12.159,0.451c-2.809,0.086-4.312,0.093-4.312,0.093s1.434-0.453,4.135-1.229
				c2.704-0.753,6.657-1.94,11.714-3.286c5.053-1.374,11.2-2.97,18.261-4.736c7.062-1.763,15.041-3.669,23.758-5.675
				c8.719-1.989,18.177-4.067,28.196-6.169c10.021-2.084,20.599-4.22,31.562-6.297c5.476-1.078,11.058-2.072,16.705-3.104
				c2.824-0.515,5.665-1.032,8.52-1.553c2.86-0.492,5.734-0.987,8.619-1.483c11.535-2.033,23.285-3.89,35.029-5.784
				c11.761-1.784,23.519-3.594,35.123-5.184c5.795-0.84,11.555-1.604,17.249-2.34c5.691-0.751,11.313-1.495,16.855-2.145
				c11.073-1.375,21.798-2.571,31.978-3.647c10.181-1.064,19.821-1.976,28.731-2.747c8.912-0.759,17.092-1.383,24.354-1.865
				c7.262-0.48,13.603-0.841,18.833-1.08c5.226-0.268,9.353-0.348,12.157-0.459
				C999.42,1735.318,1000.924,1735.309,1000.924,1735.309z"/>
		</g>
		<g>
			<path d="M2024.218,1960.436c0,0-1.462-0.354-4.176-1.08c-2.705-0.751-6.703-1.772-11.729-3.229
				c-5.037-1.43-11.126-3.231-18.086-5.36c-6.959-2.131-14.78-4.61-23.282-7.388c-8.497-2.789-17.673-5.881-27.341-9.246
				c-9.663-3.377-19.83-6.994-30.295-10.865c-5.247-1.901-10.549-3.911-15.917-5.944c-5.374-2.02-10.807-4.08-16.255-6.225
				c-10.932-4.202-21.964-8.653-33.005-13.081c-11-4.53-22.014-9.026-32.777-13.645c-2.695-1.144-5.38-2.283-8.051-3.416
				c-2.661-1.16-5.308-2.313-7.939-3.46c-5.261-2.297-10.468-4.542-15.552-6.844c-10.197-4.53-20.005-9.029-29.284-13.351
				c-9.272-4.337-18.004-8.524-26.037-12.456c-8.026-3.946-15.358-7.628-21.829-10.959c-6.47-3.335-12.088-6.295-16.693-8.789
				c-4.615-2.467-8.192-4.527-10.652-5.879c-2.451-1.374-3.744-2.143-3.744-2.143s1.462,0.352,4.177,1.077
				c2.706,0.748,6.705,1.768,11.733,3.221c5.038,1.427,11.128,3.226,18.09,5.352c6.959,2.128,14.781,4.607,23.284,7.38
				c8.498,2.789,17.674,5.882,27.342,9.244c9.662,3.378,19.828,6.999,30.293,10.869c5.248,1.898,10.544,3.923,15.916,5.949
				c2.685,1.014,5.387,2.034,8.102,3.06c2.705,1.052,5.422,2.109,8.151,3.17c10.933,4.202,21.959,8.666,33,13.095
				c10.999,4.532,22.008,9.041,32.771,13.658c5.399,2.267,10.729,4.581,15.987,6.883c5.265,2.29,10.465,4.55,15.55,6.849
				c10.198,4.529,20.005,9.031,29.283,13.354c9.273,4.335,18.005,8.522,26.038,12.453c8.028,3.942,15.36,7.623,21.832,10.952
				c6.471,3.331,12.091,6.29,16.696,8.78c4.617,2.464,8.194,4.521,10.655,5.871
				C2022.925,1959.669,2024.218,1960.436,2024.218,1960.436z"/>
		</g>
		<g>
			<path d="M1319.351,1959.869c0,0,1.298-0.759,3.758-2.117c2.47-1.334,6.06-3.371,10.691-5.807
				c4.621-2.462,10.258-5.387,16.749-8.678c6.492-3.29,13.846-6.927,21.898-10.82c8.057-3.882,16.813-8.017,26.113-12.295
				c9.304-4.268,19.138-8.71,29.363-13.177c5.099-2.269,10.313-4.496,15.591-6.754c5.273-2.271,10.616-4.553,16.029-6.786
				c10.792-4.552,21.828-8.994,32.854-13.459c11.067-4.362,22.121-8.76,33.079-12.895c2.735-1.045,5.459-2.085,8.17-3.121
				c2.721-1.009,5.429-2.013,8.12-3.011c5.384-1.993,10.692-3.986,15.952-5.852c10.489-3.807,20.676-7.366,30.359-10.686
				c9.688-3.303,18.883-6.341,27.397-9.078c8.521-2.722,16.356-5.152,23.329-7.239c6.974-2.083,13.075-3.845,18.122-5.242
				c5.037-1.422,9.042-2.418,11.752-3.15c2.719-0.709,4.183-1.052,4.183-1.052s-1.297,0.761-3.757,2.12
				c-2.468,1.337-6.057,3.375-10.688,5.814c-4.62,2.465-10.256,5.392-16.746,8.687c-6.491,3.292-13.845,6.929-21.896,10.827
				c-8.057,3.883-16.813,8.016-26.112,12.298c-9.305,4.265-19.141,8.705-29.365,13.173c-5.097,2.271-10.318,4.484-15.593,6.749
				c-2.638,1.131-5.292,2.269-7.959,3.413c-2.678,1.117-5.37,2.24-8.072,3.367c-10.791,4.553-21.832,8.981-32.859,13.445
				c-11.068,4.36-22.127,8.745-33.084,12.881c-5.462,2.111-10.907,4.139-16.293,6.126c-5.38,2.001-10.695,3.979-15.953,5.848
				c-10.488,3.808-20.677,7.363-30.36,10.682c-9.688,3.306-18.883,6.343-27.397,9.08c-8.519,2.727-16.354,5.158-23.326,7.246
				c-6.973,2.087-13.073,3.852-18.119,5.25c-5.035,1.427-9.04,2.424-11.749,3.158
				C1320.815,1959.525,1319.351,1959.869,1319.351,1959.869z"/>
		</g>
		<g>
			<path d="M2018.317,1959.869c0,0,1.298-0.759,3.758-2.117c2.47-1.334,6.06-3.371,10.691-5.807
				c4.621-2.462,10.258-5.387,16.749-8.678c6.492-3.29,13.846-6.927,21.898-10.82c8.057-3.882,16.813-8.017,26.113-12.295
				c9.304-4.268,19.138-8.71,29.363-13.177c5.099-2.269,10.313-4.496,15.591-6.754c5.273-2.271,10.616-4.553,16.029-6.786
				c10.792-4.552,21.828-8.994,32.854-13.459c11.067-4.362,22.121-8.76,33.079-12.895c2.735-1.045,5.459-2.085,8.17-3.121
				c2.721-1.009,5.429-2.013,8.12-3.011c5.384-1.993,10.692-3.986,15.952-5.852c10.489-3.807,20.676-7.366,30.359-10.686
				c9.688-3.303,18.883-6.341,27.397-9.078c8.521-2.722,16.356-5.152,23.329-7.239c6.974-2.083,13.075-3.845,18.122-5.242
				c5.037-1.422,9.042-2.418,11.752-3.15c2.719-0.709,4.183-1.052,4.183-1.052s-1.297,0.761-3.757,2.12
				c-2.468,1.337-6.057,3.375-10.688,5.814c-4.62,2.465-10.256,5.392-16.746,8.687c-6.491,3.292-13.845,6.929-21.896,10.827
				c-8.057,3.883-16.813,8.016-26.112,12.298c-9.305,4.265-19.141,8.705-29.365,13.173c-5.097,2.271-10.318,4.484-15.593,6.749
				c-2.638,1.131-5.292,2.269-7.959,3.413c-2.678,1.117-5.37,2.24-8.072,3.367c-10.791,4.553-21.832,8.981-32.859,13.445
				c-11.068,4.36-22.127,8.745-33.084,12.881c-5.462,2.111-10.907,4.139-16.293,6.126c-5.38,2.001-10.695,3.979-15.953,5.848
				c-10.488,3.808-20.677,7.363-30.36,10.682c-9.688,3.306-18.883,6.343-27.397,9.08c-8.519,2.727-16.354,5.158-23.326,7.246
				c-6.973,2.087-13.073,3.852-18.119,5.25c-5.035,1.427-9.04,2.424-11.749,3.158
				C2019.781,1959.525,2018.317,1959.869,2018.317,1959.869z"/>
		</g>
		<g>
			<path d="M2357.104,1821.121c0,0,1.451-0.396,4.179-1.068c2.731-0.647,6.727-1.682,11.832-2.832
				c5.102-1.178,11.305-2.538,18.428-4.031c7.124-1.491,15.17-3.093,23.957-4.762c8.789-1.657,18.318-3.375,28.41-5.093
				c10.093-1.705,20.744-3.44,31.778-5.099c5.513-0.867,11.127-1.664,16.81-2.474c5.682-0.823,11.435-1.64,17.241-2.391
				c11.604-1.593,23.414-3.017,35.222-4.466c11.82-1.339,23.637-2.715,35.293-3.863c2.912-0.299,5.813-0.597,8.7-0.893
				c2.89-0.268,5.765-0.534,8.623-0.799c5.717-0.526,11.36-1.072,16.924-1.509c11.118-0.952,21.88-1.744,32.093-2.435
				c10.214-0.674,19.882-1.22,28.814-1.652c8.936-0.417,17.134-0.729,24.408-0.933c7.276-0.201,13.626-0.318,18.862-0.356
				c5.232-0.066,9.359,0.013,12.167,0.01c2.81,0.021,4.312,0.07,4.312,0.07s-1.45,0.398-4.179,1.072
				c-2.73,0.65-6.726,1.687-11.83,2.839c-5.102,1.181-11.305,2.543-18.428,4.041c-7.123,1.493-15.169,3.096-23.956,4.77
				c-8.788,1.657-18.318,3.375-28.409,5.095c-10.093,1.703-20.744,3.436-31.778,5.096c-5.512,0.869-11.129,1.651-16.811,2.468
				c-2.842,0.407-5.7,0.817-8.573,1.229c-2.876,0.383-5.767,0.769-8.669,1.155c-11.604,1.595-23.415,3.005-35.223,4.452
				c-11.821,1.337-23.639,2.699-35.295,3.848c-5.822,0.62-11.607,1.164-17.324,1.685c-5.716,0.535-11.362,1.065-16.925,1.504
				c-11.117,0.953-21.88,1.742-32.092,2.431c-10.214,0.677-19.882,1.222-28.815,1.655c-8.934,0.42-17.132,0.733-24.407,0.94
				c-7.275,0.204-13.625,0.324-18.86,0.365c-5.232,0.07-9.359-0.007-12.166-0.002
				C2358.607,1821.169,2357.104,1821.121,2357.104,1821.121z"/>
		</g>
		<g>
			<path d="M2735.158,1776.546c0,0,0.923-1.188,2.701-3.363c1.795-2.157,4.37-5.383,7.764-9.367
				c3.373-4.004,7.518-8.816,12.318-14.286c4.803-5.469,10.277-11.58,16.303-18.189c6.034-6.601,12.625-13.695,19.665-21.126
				c7.05-7.422,14.526-15.204,22.355-23.153c3.89-4.002,7.9-8.01,11.96-12.069c4.051-4.069,8.161-8.175,12.355-12.262
				c8.323-8.239,16.915-16.467,25.489-24.714c8.65-8.166,17.274-16.359,25.908-24.274c2.15-1.987,4.292-3.967,6.423-5.937
				c2.15-1.949,4.291-3.888,6.418-5.815c4.256-3.853,8.441-7.677,12.63-11.366c8.32-7.435,16.452-14.528,24.206-21.211
				c7.765-6.67,15.17-12.91,22.055-18.618c6.896-5.696,13.266-10.867,18.962-15.397c5.698-4.527,10.706-8.433,14.872-11.606
				c4.146-3.193,7.493-5.608,9.736-7.295c2.26-1.67,3.492-2.533,3.492-2.533s-0.922,1.189-2.699,3.365
				c-1.793,2.159-4.367,5.386-7.758,9.373c-3.371,4.007-7.514,8.819-12.312,14.292c-4.801,5.47-10.273,11.582-16.297,18.194
				c-6.034,6.601-12.625,13.695-19.664,21.128c-7.051,7.42-14.529,15.2-22.357,23.15c-3.887,4.004-7.91,8.001-11.964,12.065
				c-2.028,2.031-4.068,4.075-6.119,6.128c-2.07,2.033-4.151,4.076-6.24,6.128c-8.323,8.24-16.925,16.458-25.5,24.703
				c-8.651,8.165-17.286,16.348-25.919,24.263c-4.284,3.991-8.584,7.898-12.845,11.747c-4.25,3.859-8.448,7.671-12.634,11.362
				c-8.319,7.436-16.454,14.527-24.208,21.208c-7.763,6.672-15.169,12.912-22.054,18.62c-6.893,5.699-13.262,10.871-18.957,15.403
				c-5.695,4.531-10.701,8.438-14.865,11.613c-4.143,3.196-7.489,5.612-9.731,7.301
				C2736.388,1775.682,2735.158,1776.546,2735.158,1776.546z"/>
		</g>
		<g>
			<path d="M2810.536,1234.536c0,0,1.44-0.432,4.151-1.17c2.715-0.715,6.684-1.847,11.759-3.122
				c5.071-1.303,11.239-2.815,18.323-4.483c7.085-1.666,15.089-3.465,23.832-5.35c8.745-1.873,18.23-3.825,28.276-5.789
				c10.048-1.953,20.653-3.95,31.644-5.879c5.489-1.002,11.082-1.938,16.744-2.886c5.659-0.963,11.391-1.92,17.177-2.814
				c11.562-1.878,23.333-3.592,35.102-5.331c11.784-1.629,23.562-3.295,35.187-4.729c2.904-0.37,5.798-0.739,8.676-1.106
				c2.883-0.339,5.751-0.676,8.602-1.011c5.701-0.667,11.33-1.352,16.882-1.925c11.091-1.225,21.83-2.281,32.022-3.223
				c10.194-0.925,19.847-1.708,28.766-2.36c8.922-0.636,17.11-1.149,24.379-1.533c7.268-0.379,13.613-0.653,18.847-0.819
				c5.229-0.195,9.356-0.218,12.163-0.289c2.81-0.048,4.313-0.036,4.313-0.036s-1.44,0.433-4.151,1.174
				c-2.713,0.717-6.682,1.852-11.757,3.129c-5.071,1.306-11.238,2.82-18.322,4.492c-7.084,1.668-15.089,3.468-23.831,5.357
				c-8.745,1.873-18.23,3.824-28.276,5.792c-10.048,1.951-20.653,3.945-31.644,5.875c-5.489,1.005-11.084,1.925-16.745,2.881
				c-2.83,0.477-5.678,0.957-8.54,1.439c-2.865,0.454-5.746,0.91-8.638,1.368c-11.561,1.879-23.335,3.579-35.104,5.316
				c-11.784,1.627-23.565,3.279-35.188,4.714c-5.806,0.763-11.575,1.449-17.278,2.11c-5.7,0.675-11.332,1.344-16.883,1.919
				c-11.091,1.227-21.83,2.279-32.022,3.22c-10.194,0.928-19.847,1.71-28.766,2.362c-8.922,0.639-17.109,1.154-24.377,1.54
				c-7.269,0.383-13.613,0.659-18.846,0.829c-5.229,0.198-9.356,0.223-12.162,0.297
				C2812.04,1234.546,2810.536,1234.536,2810.536,1234.536z"/>
		</g>
		<g>
			<path d="M3010.771,1513.364c0,0,1.227,0.869,3.479,2.55c2.234,1.699,5.57,4.129,9.699,7.343
				c4.149,3.194,9.139,7.123,14.814,11.678c5.675,4.557,12.021,9.756,18.89,15.485c6.86,5.738,14.237,12.01,21.972,18.716
				c7.725,6.715,15.828,13.842,24.115,21.314c4.17,3.709,8.351,7.54,12.584,11.417c4.243,3.867,8.526,7.793,12.793,11.803
				c8.599,7.953,17.197,16.174,25.812,24.376c8.54,8.282,17.104,16.538,25.393,24.814c2.08,2.061,4.151,4.113,6.213,6.155
				c2.041,2.062,4.073,4.115,6.092,6.155c4.037,4.083,8.042,8.096,11.911,12.118c7.794,7.985,15.238,15.797,22.257,23.248
				c7.006,7.464,13.565,14.587,19.57,21.214c5.995,6.639,11.441,12.774,16.219,18.266c4.773,5.494,8.896,10.325,12.25,14.346
				c3.373,4.001,5.932,7.239,7.717,9.406c1.768,2.184,2.684,3.377,2.684,3.377s-1.229-0.868-3.48-2.548
				c-2.236-1.697-5.574-4.126-9.705-7.337c-4.151-3.192-9.143-7.119-14.821-11.672c-5.677-4.555-12.023-9.754-18.895-15.48
				c-6.86-5.738-14.237-12.01-21.974-18.714c-7.724-6.717-15.824-13.845-24.112-21.316c-4.172-3.707-8.342-7.55-12.581-11.421
				c-2.118-1.937-4.25-3.885-6.392-5.843c-2.122-1.979-4.255-3.968-6.396-5.964c-8.599-7.952-17.188-16.183-25.802-24.387
				c-8.538-8.284-17.094-16.549-25.382-24.825c-4.176-4.105-8.269-8.229-12.301-12.315c-4.042-4.076-8.036-8.102-11.907-12.121
				c-7.795-7.984-15.237-15.798-22.254-23.251c-7.008-7.462-13.567-14.585-19.573-21.212c-5.997-6.636-11.444-12.771-16.223-18.26
				c-4.776-5.491-8.9-10.32-12.257-14.34c-3.375-3.998-5.936-7.235-7.722-9.4
				C3011.688,1514.556,3010.771,1513.364,3010.771,1513.364z"/>
		</g>
		<g>
			<path d="M3285.234,1776.546c0,0,1.367-0.625,3.951-1.729c2.591-1.08,6.367-2.746,11.22-4.704
				c4.845-1.986,10.747-4.33,17.536-6.954c6.789-2.622,14.471-5.501,22.873-8.567c8.406-3.054,17.533-6.288,27.215-9.612
				c9.686-3.312,19.916-6.744,30.538-10.163c5.301-1.745,10.713-3.438,16.19-5.155c5.475-1.73,11.02-3.464,16.629-5.143
				c11.194-3.446,22.62-6.758,34.039-10.094c11.449-3.23,22.889-6.495,34.206-9.51c2.826-0.765,5.641-1.527,8.441-2.286
				c2.81-0.73,5.604-1.458,8.382-2.181c5.557-1.443,11.038-2.893,16.458-4.221c10.818-2.734,21.312-5.253,31.278-7.584
				c9.972-2.314,19.425-4.414,28.171-6.282c8.75-1.854,16.79-3.485,23.938-4.861c7.147-1.373,13.396-2.514,18.557-3.396
				c5.153-0.91,9.238-1.499,12.009-1.954c2.776-0.433,4.268-0.627,4.268-0.627s-1.367,0.627-3.951,1.732
				c-2.59,1.083-6.365,2.75-11.217,4.712c-4.844,1.989-10.745,4.335-17.533,6.962c-6.788,2.624-14.471,5.504-22.871,8.574
				c-8.406,3.054-17.533,6.288-27.215,9.615c-9.686,3.31-19.917,6.74-30.539,10.159c-5.299,1.748-10.716,3.426-16.191,5.15
				c-2.738,0.86-5.493,1.726-8.262,2.596c-2.777,0.843-5.567,1.689-8.369,2.54c-11.193,3.446-22.623,6.745-34.043,10.079
				c-11.449,3.228-22.893,6.48-34.21,9.496c-5.646,1.552-11.267,3.023-16.825,4.459c-5.555,1.45-11.041,2.885-16.46,4.217
				c-10.817,2.735-21.312,5.251-31.278,7.58c-9.972,2.317-19.425,4.416-28.171,6.285c-8.749,1.856-16.789,3.49-23.936,4.868
				c-7.146,1.376-13.394,2.52-18.554,3.405c-5.152,0.914-9.237,1.504-12.007,1.962
				C3286.725,1776.351,3285.234,1776.546,3285.234,1776.546z"/>
		</g>
		<g>
			<path d="M3651.132,1671.523c0,0,0.492-1.421,1.477-4.052c1.008-2.62,2.409-6.502,4.342-11.365
				c1.907-4.876,4.286-10.765,7.074-17.487c2.791-6.722,6.011-14.268,9.593-22.463c3.593-8.189,7.554-17.026,11.833-26.325
				c4.29-9.293,8.869-19.065,13.729-29.109c2.396-5.04,4.907-10.125,7.447-15.272c2.527-5.155,5.102-10.364,7.759-15.581
				c5.235-10.478,10.727-21.03,16.195-31.595c5.567-10.513,11.102-21.043,16.733-31.313c1.397-2.573,2.789-5.135,4.174-7.685
				c1.41-2.537,2.813-5.061,4.209-7.569c2.791-5.016,5.527-9.983,8.307-14.822c5.49-9.714,10.912-19.045,16.105-27.865
				c5.209-8.812,10.217-17.101,14.902-24.718c4.699-7.61,9.069-14.554,13.008-20.674c3.941-6.119,7.429-11.427,10.353-15.771
				c2.899-4.356,5.294-7.719,6.876-10.037c1.604-2.308,2.493-3.521,2.493-3.521s-0.49,1.422-1.474,4.054
				c-1.005,2.621-2.405,6.504-4.335,11.368c-1.904,4.877-4.281,10.767-7.066,17.491c-2.788,6.723-6.007,14.27-9.585,22.467
				c-3.594,8.19-7.555,17.026-11.831,26.327c-4.292,9.292-8.874,19.063-13.732,29.108c-2.394,5.041-4.919,10.118-7.451,15.27
				c-1.269,2.575-2.544,5.166-3.825,7.77c-1.308,2.59-2.621,5.194-3.94,7.808c-5.233,10.478-10.737,21.024-16.208,31.588
				c-5.569,10.512-11.115,21.036-16.746,31.306c-2.775,5.156-5.592,10.238-8.389,15.251c-2.785,5.02-5.535,9.979-8.312,14.82
				c-5.488,9.715-10.912,19.044-16.108,27.863c-5.207,8.813-10.214,17.102-14.899,24.72c-4.696,7.612-9.065,14.556-13.002,20.678
				c-3.938,6.121-7.423,11.429-10.345,15.774c-2.896,4.358-5.289,7.721-6.868,10.041
				C3652.02,1670.31,3651.132,1671.523,3651.132,1671.523z"/>
		</g>
		<g>
			<path d="M3010.771,1513.965c0,0,0.492-1.421,1.477-4.052c1.008-2.62,2.409-6.502,4.342-11.365
				c1.907-4.876,4.286-10.765,7.074-17.487c2.791-6.722,6.011-14.268,9.593-22.463c3.593-8.189,7.554-17.026,11.833-26.325
				c4.29-9.293,8.869-19.065,13.729-29.109c2.396-5.04,4.907-10.125,7.447-15.272c2.527-5.155,5.102-10.364,7.759-15.581
				c5.235-10.478,10.727-21.03,16.195-31.595c5.567-10.513,11.102-21.043,16.733-31.312c1.397-2.573,2.789-5.136,4.174-7.686
				c1.41-2.537,2.813-5.061,4.209-7.569c2.791-5.016,5.527-9.983,8.307-14.822c5.49-9.714,10.912-19.045,16.105-27.865
				c5.209-8.812,10.217-17.101,14.902-24.718c4.699-7.61,9.069-14.554,13.008-20.674c3.941-6.119,7.429-11.427,10.353-15.771
				c2.899-4.356,5.294-7.719,6.876-10.037c1.604-2.308,2.493-3.521,2.493-3.521s-0.49,1.422-1.474,4.054
				c-1.005,2.622-2.405,6.504-4.335,11.369c-1.904,4.877-4.281,10.767-7.066,17.491c-2.788,6.723-6.007,14.27-9.585,22.467
				c-3.594,8.19-7.555,17.026-11.831,26.327c-4.292,9.292-8.874,19.063-13.732,29.108c-2.394,5.041-4.919,10.118-7.451,15.27
				c-1.269,2.575-2.544,5.166-3.825,7.77c-1.308,2.591-2.621,5.194-3.94,7.809c-5.233,10.478-10.737,21.024-16.208,31.587
				c-5.569,10.512-11.115,21.036-16.746,31.306c-2.775,5.156-5.592,10.238-8.389,15.251c-2.785,5.02-5.535,9.979-8.312,14.82
				c-5.488,9.715-10.912,19.043-16.108,27.863c-5.207,8.813-10.214,17.102-14.899,24.72c-4.696,7.612-9.065,14.556-13.002,20.678
				c-3.938,6.121-7.423,11.43-10.345,15.774c-2.896,4.358-5.289,7.721-6.868,10.041
				C3011.659,1512.752,3010.771,1513.965,3010.771,1513.965z"/>
		</g>
		<g>
			<path d="M3639.99,1671.523c0,0,1.504,0.024,4.311,0.138c2.804,0.139,6.93,0.259,12.152,0.577
				c5.229,0.29,11.564,0.712,18.822,1.263c7.256,0.553,15.43,1.256,24.334,2.101c8.902,0.857,18.533,1.862,28.704,3.024
				c10.168,1.175,20.881,2.475,31.94,3.957c5.535,0.704,11.15,1.502,16.834,2.309c5.686,0.792,11.438,1.611,17.225,2.507
				c11.588,1.703,23.327,3.626,35.07,5.524c11.726,2.008,23.457,3.979,34.972,6.124c2.88,0.524,5.749,1.047,8.604,1.567
				c2.85,0.548,5.686,1.093,8.504,1.635c5.638,1.086,11.21,2.135,16.675,3.266c10.942,2.183,21.499,4.421,31.5,6.603
				c9.997,2.199,19.435,4.368,28.134,6.442c8.697,2.089,16.658,4.073,23.702,5.904c7.044,1.834,13.175,3.491,18.214,4.913
				c5.044,1.395,8.985,2.62,11.682,3.399c2.693,0.803,4.123,1.27,4.123,1.27s-1.504-0.022-4.312-0.135
				c-2.804-0.137-6.93-0.254-12.153-0.569c-5.229-0.287-11.565-0.707-18.823-1.254c-7.257-0.55-15.432-1.252-24.336-2.094
				c-8.902-0.857-18.533-1.862-28.704-3.022c-10.168-1.177-20.88-2.479-31.939-3.96c-5.537-0.701-11.148-1.515-16.833-2.313
				c-2.843-0.401-5.702-0.804-8.576-1.209c-2.869-0.433-5.753-0.869-8.647-1.306c-11.588-1.702-23.325-3.638-35.068-5.539
				c-11.726-2.01-23.455-3.994-34.969-6.138c-5.766-1.027-11.473-2.116-17.108-3.209c-5.638-1.079-11.208-2.143-16.673-3.271
				c-10.943-2.182-21.499-4.423-31.5-6.606c-9.998-2.196-19.436-4.366-28.135-6.439c-8.697-2.085-16.658-4.069-23.703-5.897
				c-7.044-1.831-13.175-3.484-18.215-4.904c-5.045-1.391-8.986-2.615-11.684-3.392
				C3641.419,1671.988,3639.99,1671.523,3639.99,1671.523z"/>
		</g>
		<g>
			<path d="M3820.202,1334.298c0,0,1.328-0.706,3.841-1.962c2.521-1.232,6.191-3.121,10.919-5.366
				c4.717-2.272,10.469-4.964,17.089-7.988c6.621-3.022,14.117-6.356,22.321-9.918c8.208-3.551,17.126-7.324,26.593-11.221
				c9.47-3.884,19.477-7.922,29.876-11.968c5.187-2.059,10.487-4.072,15.854-6.113c5.361-2.054,10.793-4.116,16.292-6.127
				c10.969-4.108,22.176-8.096,33.375-12.108c11.236-3.908,22.46-7.851,33.577-11.536c2.775-0.933,5.54-1.862,8.29-2.786
				c2.761-0.897,5.507-1.79,8.236-2.678c5.461-1.772,10.846-3.546,16.178-5.197c10.635-3.375,20.959-6.517,30.769-9.438
				c9.815-2.906,19.126-5.566,27.745-7.954c8.624-2.373,16.553-4.482,23.604-6.282c7.054-1.797,13.222-3.31,18.32-4.499
				c5.091-1.216,9.134-2.048,11.871-2.668c2.745-0.598,4.223-0.88,4.223-0.88s-1.327,0.707-3.84,1.965
				c-2.521,1.235-6.19,3.125-10.916,5.374c-4.716,2.274-10.468,4.969-17.086,7.997c-6.62,3.024-14.116,6.359-22.319,9.925
				c-8.207,3.551-17.126,7.324-26.591,11.223c-9.471,3.882-19.479,7.917-29.878,11.965c-5.186,2.062-10.492,4.06-15.855,6.108
				c-2.682,1.022-5.38,2.051-8.092,3.085c-2.722,1.007-5.457,2.019-8.202,3.035c-10.968,4.109-22.181,8.084-33.38,12.095
				c-11.236,3.906-22.465,7.835-33.582,11.522c-5.543,1.886-11.066,3.69-16.529,5.456c-5.457,1.78-10.849,3.54-16.178,5.192
				c-10.636,3.377-20.961,6.515-30.771,9.435c-9.814,2.909-19.125,5.568-27.744,7.956c-8.622,2.376-16.551,4.486-23.602,6.289
				c-7.052,1.801-13.219,3.315-18.317,4.507c-5.089,1.22-9.132,2.053-11.868,2.676
				C3821.678,1334.014,3820.202,1334.299,3820.202,1334.298z"/>
		</g>
		<g>
			<path d="M3827.741,1334.298c0,0,1.439,0.436,4.107,1.317c2.657,0.904,6.591,2.151,11.526,3.892
				c4.947,1.715,10.924,3.861,17.751,6.383c6.826,2.524,14.492,5.445,22.822,8.703c8.324,3.269,17.31,6.88,26.77,10.791
				c9.454,3.922,19.398,8.114,29.626,12.576c5.129,2.197,10.309,4.506,15.553,6.842c5.25,2.323,10.556,4.69,15.873,7.142
				c10.675,4.819,21.436,9.893,32.206,14.943c10.724,5.15,21.463,10.268,31.945,15.492c2.625,1.295,5.241,2.585,7.843,3.869
				c2.59,1.31,5.167,2.613,7.729,3.908c5.122,2.593,10.192,5.131,15.137,7.72c9.922,5.104,19.458,10.155,28.475,15
				c9.01,4.859,17.488,9.537,25.284,13.92c7.789,4.397,14.898,8.492,21.169,12.187c6.269,3.699,11.709,6.975,16.164,9.727
				c4.467,2.726,7.921,4.987,10.3,6.477c2.368,1.511,3.615,2.352,3.615,2.353s-1.44-0.434-4.108-1.314
				c-2.659-0.901-6.594-2.147-11.53-3.885c-4.948-1.712-10.927-3.856-17.755-6.375c-6.827-2.522-14.494-5.442-22.825-8.697
				c-8.325-3.269-17.31-6.88-26.771-10.789c-9.454-3.924-19.396-8.119-29.624-12.579c-5.132-2.194-10.304-4.518-15.551-6.847
				c-2.623-1.166-5.262-2.338-7.914-3.517c-2.64-1.205-5.293-2.415-7.957-3.63c-10.675-4.819-21.429-9.904-32.199-14.957
				c-10.723-5.152-21.456-10.282-31.938-15.505c-5.262-2.57-10.45-5.185-15.568-7.784c-5.126-2.586-10.189-5.139-15.135-7.724
				c-9.923-5.104-19.457-10.157-28.474-15.003c-9.011-4.857-17.489-9.536-25.285-13.918c-7.79-4.394-14.9-8.487-21.172-12.18
				c-6.271-3.694-11.712-6.969-16.168-9.718c-4.469-2.723-7.923-4.982-10.303-6.47
				C3828.988,1335.138,3827.741,1334.299,3827.741,1334.298z"/>
		</g>
		<g>
			<path d="M1011.779,1733.54c0,0,1.333,0.696,3.791,2.057c2.443,1.382,6.077,3.339,10.603,5.966
				c4.542,2.604,10.017,5.823,16.256,9.57c6.238,3.749,13.228,8.044,20.808,12.792c7.572,4.759,15.729,9.977,24.298,15.578
				c8.561,5.61,17.553,11.577,26.773,17.862c4.632,3.112,9.292,6.343,14.01,9.613c4.727,3.258,9.501,6.57,14.271,9.966
				c9.593,6.719,19.223,13.704,28.868,20.667c9.58,7.053,19.181,14.077,28.51,21.158c2.339,1.761,4.669,3.515,6.988,5.26
				c2.301,1.768,4.591,3.527,6.868,5.276c4.551,3.5,9.062,6.936,13.438,10.398c8.801,6.859,17.232,13.595,25.192,20.029
				c7.95,6.449,15.412,12.621,22.257,18.377c6.836,5.768,13.061,11.112,18.536,15.907c5.473,4.799,10.209,9.029,14.076,12.561
				c3.882,3.509,6.856,6.372,8.917,8.278c2.046,1.925,3.115,2.983,3.115,2.983s-1.334-0.694-3.793-2.055
				c-2.445-1.379-6.08-3.335-10.607-5.959c-4.544-2.602-10.02-5.819-16.261-9.563c-6.24-3.747-13.23-8.041-20.812-12.786
				c-7.572-4.759-15.729-9.978-24.3-15.576c-8.56-5.611-17.55-11.581-26.771-17.864c-4.634-3.11-9.285-6.354-14.008-9.617
				c-2.36-1.633-4.735-3.276-7.123-4.927c-2.37-1.674-4.752-3.356-7.144-5.046c-9.594-6.718-19.215-13.713-28.859-20.679
				c-9.578-7.055-19.171-14.089-28.501-21.17c-4.692-3.503-9.305-7.037-13.852-10.541c-4.555-3.493-9.057-6.943-13.435-10.402
				c-8.802-6.858-17.231-13.596-25.19-20.033c-7.952-6.447-15.413-12.619-22.259-18.374c-6.838-5.765-13.063-11.108-18.54-15.902
				c-5.475-4.795-10.213-9.023-14.081-12.553c-3.885-3.506-6.859-6.368-8.921-8.271
				C1012.849,1734.597,1011.779,1733.54,1011.779,1733.54z"/>
		</g>
		<g>
			<path d="M1011.779,1732.378c0,0,0.696-1.333,2.057-3.791c1.382-2.443,3.339-6.077,5.966-10.603
				c2.604-4.542,5.823-10.017,9.57-16.256c3.749-6.238,8.044-13.228,12.792-20.808c4.759-7.572,9.977-15.729,15.578-24.298
				c5.61-8.561,11.577-17.553,17.862-26.773c3.112-4.632,6.343-9.292,9.613-14.01c3.258-4.727,6.57-9.501,9.966-14.271
				c6.719-9.593,13.704-19.223,20.667-28.868c7.053-9.58,14.077-19.181,21.158-28.51c1.761-2.339,3.515-4.669,5.26-6.988
				c1.768-2.301,3.527-4.591,5.276-6.868c3.5-4.551,6.936-9.062,10.398-13.438c6.859-8.801,13.594-17.232,20.029-25.192
				c6.449-7.95,12.621-15.412,18.376-22.257c5.768-6.836,11.112-13.061,15.908-18.536c4.798-5.473,9.029-10.209,12.56-14.076
				c3.509-3.882,6.372-6.856,8.278-8.917c1.925-2.046,2.983-3.115,2.983-3.115s-0.694,1.334-2.055,3.793
				c-1.379,2.445-3.335,6.08-5.959,10.607c-2.602,4.544-5.819,10.02-9.563,16.261c-3.747,6.24-8.041,13.23-12.787,20.812
				c-4.758,7.572-9.977,15.729-15.575,24.3c-5.612,8.56-11.582,17.55-17.865,26.771c-3.11,4.634-6.354,9.285-9.617,14.008
				c-1.633,2.36-3.276,4.735-4.927,7.123c-1.674,2.37-3.356,4.752-5.046,7.144c-6.718,9.594-13.713,19.215-20.679,28.859
				c-7.055,9.578-14.089,19.171-21.17,28.501c-3.503,4.692-7.037,9.305-10.541,13.852c-3.493,4.555-6.943,9.057-10.402,13.435
				c-6.858,8.802-13.596,17.231-20.033,25.19c-6.447,7.952-12.619,15.413-18.374,22.259c-5.765,6.838-11.108,13.063-15.902,18.54
				c-4.795,5.475-9.023,10.213-12.553,14.081c-3.506,3.885-6.368,6.859-8.271,8.921
				C1012.835,1731.308,1011.779,1732.378,1011.779,1732.378z"/>
		</g>
		<g>
			<path d="M1236.079,1431.099c0,0,1.39-0.574,4.013-1.581c2.629-0.982,6.465-2.507,11.387-4.283
				c4.915-1.805,10.901-3.927,17.783-6.295c6.882-2.367,14.666-4.959,23.177-7.71c8.514-2.739,17.755-5.631,27.554-8.592
				c9.802-2.949,20.153-5.998,30.895-9.018c5.362-1.546,10.833-3.038,16.371-4.548c5.535-1.525,11.141-3.051,16.809-4.52
				c11.314-3.026,22.856-5.911,34.391-8.819c11.562-2.801,23.115-5.638,34.537-8.229c2.853-0.659,5.694-1.316,8.521-1.969
				c2.834-0.626,5.654-1.249,8.457-1.867c5.606-1.235,11.139-2.479,16.604-3.605c10.913-2.33,21.492-4.456,31.539-6.414
				c10.051-1.941,19.576-3.688,28.385-5.229c8.813-1.526,16.909-2.857,24.102-3.966c7.194-1.105,13.48-2.013,18.67-2.703
				c5.184-0.717,9.288-1.153,12.073-1.506c2.791-0.329,4.288-0.468,4.288-0.467s-1.39,0.575-4.012,1.584
				c-2.628,0.985-6.464,2.511-11.385,4.291c-4.914,1.807-10.899,3.932-17.78,6.304c-6.882,2.369-14.666,4.962-23.175,7.717
				c-8.514,2.739-17.755,5.631-27.554,8.595c-9.802,2.947-20.154,5.993-30.896,9.015c-5.361,1.549-10.836,3.024-16.372,4.543
				c-2.769,0.758-5.554,1.521-8.353,2.287c-2.806,0.739-5.626,1.481-8.458,2.227c-11.314,3.027-22.858,5.898-34.394,8.804
				c-11.562,2.799-23.119,5.623-34.54,8.215c-5.7,1.341-11.372,2.601-16.98,3.83c-5.604,1.243-11.14,2.472-16.605,3.601
				c-10.912,2.331-21.492,4.454-31.54,6.41c-10.05,1.944-19.575,3.689-28.384,5.231c-8.812,1.53-16.908,2.862-24.1,3.973
				c-7.193,1.109-13.478,2.02-18.668,2.712c-5.183,0.721-9.287,1.159-12.071,1.514
				C1237.576,1430.959,1236.079,1431.099,1236.079,1431.099z"/>
		</g>
		<g>
			<path d="M854.984,1381.75c0,0,1.503-0.033,4.313-0.024c2.807,0.034,6.934-0.002,12.166,0.12
				c5.235,0.093,11.583,0.276,18.855,0.554c7.272,0.279,15.467,0.675,24.397,1.184c8.928,0.522,18.59,1.164,28.797,1.943
				c10.206,0.792,20.959,1.688,32.067,2.752c5.558,0.495,11.199,1.082,16.909,1.673c5.712,0.578,11.491,1.179,17.307,1.857
				c11.644,1.266,23.447,2.746,35.254,4.201c11.792,1.564,23.59,3.093,35.177,4.803c2.898,0.416,5.785,0.83,8.657,1.242
				c2.869,0.44,5.723,0.879,8.56,1.314c5.674,0.874,11.282,1.712,16.785,2.636c11.017,1.77,21.65,3.61,31.726,5.413
				c10.073,1.821,19.585,3.634,28.357,5.379c8.77,1.761,16.799,3.444,23.907,5.009c7.107,1.568,13.296,2.993,18.386,4.225
				c5.093,1.204,9.078,2.28,11.802,2.958c2.721,0.701,4.167,1.113,4.167,1.113s-1.503,0.035-4.313,0.027
				c-2.807-0.031-6.935,0.006-12.167-0.111c-5.235-0.09-11.583-0.271-18.857-0.545c-7.272-0.277-15.467-0.671-24.397-1.177
				c-8.928-0.521-18.59-1.164-28.797-1.94c-10.205-0.793-20.959-1.692-32.066-2.756c-5.559-0.492-11.197-1.094-16.908-1.678
				c-2.855-0.293-5.728-0.589-8.615-0.885c-2.883-0.325-5.781-0.652-8.691-0.979c-11.644-1.265-23.446-2.758-35.252-4.215
				c-11.792-1.567-23.588-3.109-35.175-4.818c-5.799-0.809-11.543-1.683-17.216-2.563c-5.675-0.866-11.281-1.72-16.785-2.642
				c-11.017-1.769-21.65-3.611-31.725-5.417c-10.074-1.818-19.586-3.632-28.357-5.376c-8.77-1.757-16.8-3.439-23.908-5.001
				c-7.108-1.564-13.297-2.986-18.387-4.215c-5.093-1.2-9.078-2.275-11.803-2.95C856.431,1382.161,854.984,1381.751,854.984,1381.75
				z"/>
		</g>
	</g>
	<g id="Enden" display="inline">
	</g>
</g>
<g id="B">
	<rect id="BG" x="847.777" y="571.188" display="none" fill="#183962" width="2440.211" height="2440.211"/>
	<g id="Text_1_">
		<g id="Text_Kopie">
			<g>
				<rect x="1183.13" y="1429.26" fill="none" width="1948.244" height="1463"/>
				<path fill="#FFFFFF" d="M1224.39,1804.26v-355.469h116.211c38.574,0,67.585,7.977,87.036,23.926
					c19.447,15.953,29.175,39.551,29.175,70.801c0,16.602-4.723,31.292-14.16,44.067c-9.441,12.779-22.301,22.667-38.574,29.663
					c19.203,5.371,34.382,15.587,45.532,30.64c11.146,15.057,16.724,33.001,16.724,53.833c0,31.902-10.338,56.969-31.006,75.195
					c-20.672,18.23-49.889,27.344-87.646,27.344H1224.39z M1271.265,1600.402h70.801c20.508,0,36.903-5.135,49.194-15.411
					c12.287-10.277,18.433-24.224,18.433-41.84c0-19.573-5.699-33.806-17.09-42.694c-11.395-8.888-28.729-13.336-52.002-13.336
					h-69.336V1600.402z M1271.265,1638v127.93h77.393c21.809,0,39.021-5.653,51.636-16.968
					c12.611-11.311,18.921-26.894,18.921-46.753c0-42.805-23.277-64.209-69.824-64.209H1271.265z"/>
				<path fill="#FFFFFF" d="M1656.275,1580.627c-6.836-1.137-14.244-1.709-22.217-1.709c-29.625,0-49.725,12.615-60.303,37.842
					v187.5h-45.166V1540.1h43.945l0.732,30.518c14.809-23.598,35.805-35.4,62.988-35.4c8.789,0,15.461,1.141,20.02,3.418V1580.627z"
					/>
				<path fill="#FFFFFF" d="M1698.023,1470.031c0-7.324,2.235-13.508,6.714-18.555c4.475-5.043,11.108-7.568,19.897-7.568
					s15.461,2.525,20.02,7.568c4.555,5.047,6.836,11.23,6.836,18.555s-2.281,13.428-6.836,18.311
					c-4.559,4.883-11.23,7.324-20.02,7.324s-15.423-2.441-19.897-7.324C1700.258,1483.459,1698.023,1477.355,1698.023,1470.031z
					 M1746.851,1804.26h-45.166V1540.1h45.166V1804.26z"/>
				<path fill="#FFFFFF" d="M1808.13,1669.982c0-40.527,9.602-73.12,28.809-97.778c19.203-24.658,44.35-36.987,75.439-36.987
					c30.922,0,55.42,10.582,73.486,31.738V1429.26h45.166v375h-41.504l-2.197-28.32c-18.066,22.137-43.213,33.203-75.439,33.203
					c-30.602,0-55.542-12.531-74.829-37.598c-19.287-25.062-28.931-57.777-28.931-98.145V1669.982z M1853.296,1675.109
					c0,29.949,6.184,53.387,18.555,70.312c12.367,16.93,29.457,25.391,51.27,25.391c28.645,0,49.561-12.855,62.744-38.574V1610.9
					c-13.512-24.902-34.264-37.354-62.256-37.354c-22.137,0-39.391,8.545-51.758,25.635
					C1859.48,1616.271,1853.296,1641.582,1853.296,1675.109z"/>
				<path fill="#FFFFFF" d="M2090.357,1669.982c0-41.176,9.521-73.933,28.564-98.267c19.043-24.33,44.27-36.499,75.684-36.499
					c32.227,0,57.373,11.395,75.439,34.18l2.197-29.297h41.26v257.812c0,34.18-10.132,61.115-30.396,80.811
					c-20.264,19.691-47.485,29.541-81.665,29.541c-19.043,0-37.682-4.07-55.908-12.207c-18.23-8.141-32.146-19.287-41.748-33.447
					l23.438-27.1c19.367,23.926,43.049,35.889,71.045,35.889c21.973,0,39.101-6.188,51.392-18.555
					c12.287-12.371,18.433-29.785,18.433-52.246v-22.705c-18.066,20.836-42.725,31.25-73.975,31.25
					c-30.926,0-55.95-12.451-75.073-37.354C2099.917,1746.887,2090.357,1712.951,2090.357,1669.982z M2135.767,1675.109
					c0,29.785,6.104,53.185,18.311,70.19c12.207,17.01,29.297,25.513,51.27,25.513c28.48,0,49.396-12.939,62.744-38.818v-120.605
					c-13.836-25.227-34.588-37.842-62.256-37.842c-21.973,0-39.146,8.545-51.514,25.635
					C2141.951,1616.271,2135.767,1641.582,2135.767,1675.109z"/>
				<path fill="#FFFFFF" d="M2381.861,1470.031c0-7.324,2.235-13.508,6.714-18.555c4.475-5.043,11.108-7.568,19.897-7.568
					s15.461,2.525,20.02,7.568c4.555,5.047,6.836,11.23,6.836,18.555s-2.281,13.428-6.836,18.311
					c-4.559,4.883-11.23,7.324-20.02,7.324s-15.423-2.441-19.897-7.324C2384.096,1483.459,2381.861,1477.355,2381.861,1470.031z
					 M2430.689,1804.26h-45.166V1540.1h45.166V1804.26z"/>
				<path fill="#FFFFFF" d="M2545.679,1540.1l1.465,33.203c20.18-25.391,46.547-38.086,79.102-38.086
					c55.824,0,83.984,31.494,84.473,94.482v174.561h-45.166v-174.805c-0.164-19.043-4.517-33.119-13.062-42.236
					c-8.545-9.113-21.851-13.672-39.917-13.672c-14.648,0-27.508,3.906-38.574,11.719c-11.07,7.812-19.695,18.066-25.879,30.762
					v188.232h-45.166V1540.1H2545.679z"/>
				<path fill="#FFFFFF" d="M2768.091,1669.982c0-41.176,9.521-73.933,28.564-98.267c19.043-24.33,44.27-36.499,75.684-36.499
					c32.227,0,57.373,11.395,75.439,34.18l2.197-29.297h41.26v257.812c0,34.18-10.132,61.115-30.396,80.811
					c-20.264,19.691-47.485,29.541-81.665,29.541c-19.043,0-37.682-4.07-55.908-12.207c-18.23-8.141-32.146-19.287-41.748-33.447
					l23.438-27.1c19.367,23.926,43.049,35.889,71.045,35.889c21.973,0,39.101-6.188,51.392-18.555
					c12.287-12.371,18.433-29.785,18.433-52.246v-22.705c-18.066,20.836-42.725,31.25-73.975,31.25
					c-30.926,0-55.95-12.451-75.073-37.354C2777.651,1746.887,2768.091,1712.951,2768.091,1669.982z M2813.501,1675.109
					c0,29.785,6.104,53.185,18.311,70.19c12.207,17.01,29.297,25.513,51.27,25.513c28.48,0,49.396-12.939,62.744-38.818v-120.605
					c-13.836-25.227-34.588-37.842-62.256-37.842c-21.973,0-39.146,8.545-51.514,25.635
					C2819.685,1616.271,2813.501,1641.582,2813.501,1675.109z"/>
			</g>
		</g>
		<g id="Text_Kopie_Kopie">
			<g>
				<rect x="1058.13" y="1907.447" fill="none" width="2007.257" height="975.813"/>
				<path fill="#FFFFFF" d="M1432.689,2131.046h-142.312v96.357h167.02v59.544h-241.141v-359.734h240.646v60.038h-166.525v85.733
					h142.312V2131.046z"/>
				<path fill="#FFFFFF" d="M1652.087,2259.77c-17.627,21.414-42.002,32.119-73.133,32.119c-28.66,0-50.526-8.234-65.597-24.707
					c-15.071-16.469-22.773-40.601-23.101-72.392v-175.173h71.403v172.903c0,27.868,12.682,41.801,38.049,41.801
					c24.213,0,40.848-8.408,49.908-25.232v-189.472h71.65v267.33h-67.203L1652.087,2259.77z"/>
				<path fill="#FFFFFF" d="M1925.347,2086.573c-9.721-1.316-18.283-1.977-25.695-1.977c-27.016,0-44.72,9.142-53.12,27.425v174.926
					h-71.403v-267.33h67.45l1.977,31.872c14.33-24.541,34.177-36.813,59.544-36.813c7.906,0,15.318,1.073,22.236,3.212
					L1925.347,2086.573z"/>
				<path fill="#FFFFFF" d="M1939.677,2150.812c0-26.518,5.104-50.155,15.318-70.909c10.211-20.754,24.912-36.813,44.102-48.179
					c19.187-11.365,41.465-17.048,66.833-17.048c36.072,0,65.512,11.037,88.328,33.107c22.812,22.074,35.536,52.051,38.172,89.934
					l0.494,18.283c0,41.014-11.45,73.916-34.343,98.705c-22.896,24.791-53.614,37.184-92.157,37.184s-69.303-12.354-92.281-37.061
					s-34.466-58.309-34.466-100.805V2150.812z M2011.081,2155.88c0,25.406,4.775,44.832,14.33,58.274
					c9.551,13.446,23.225,20.167,41.014,20.167c17.295,0,30.799-6.64,40.52-19.92c9.717-13.28,14.577-34.517,14.577-63.717
					c0-24.908-4.86-44.211-14.577-57.903c-9.721-13.689-23.391-20.538-41.014-20.538c-17.461,0-30.969,6.806-40.52,20.414
					C2015.856,2106.27,2011.081,2127.344,2011.081,2155.88z"/>
				<path fill="#FFFFFF" d="M2477.549,2155.753c0,41.18-9.35,74.163-28.042,98.952c-18.696,24.791-43.94,37.184-75.727,37.184
					c-27.016,0-48.839-9.389-65.474-28.166v126.006h-71.403v-370.111h66.215l2.471,26.189
					c17.295-20.754,39.859-31.131,67.697-31.131c32.941,0,58.556,12.191,76.839,36.566c18.283,24.379,27.425,57.98,27.425,100.805
					V2155.753z M2406.146,2150.564c0-24.869-4.409-44.06-13.218-57.567c-8.813-13.504-21.619-20.26-38.419-20.26
					c-22.402,0-37.802,8.566-46.202,25.695v109.452c8.729,17.627,24.294,26.437,46.696,26.437
					C2389.098,2234.321,2406.146,2206.402,2406.146,2150.564z"/>
				<path fill="#FFFFFF" d="M2644.816,2291.889c-39.203,0-71.117-12.021-95.739-36.072c-24.626-24.047-36.938-56.085-36.938-96.11
					v-6.918c0-26.846,5.188-50.854,15.565-72.021c10.377-21.164,25.077-37.471,44.103-48.92
					c19.023-11.447,40.724-17.172,65.103-17.172c36.566,0,65.351,11.531,86.351,34.59c21.002,23.062,31.502,55.757,31.502,98.087
					v29.154h-170.231c2.305,17.461,9.265,31.463,20.878,42.002c11.611,10.543,26.312,15.812,44.102,15.812
					c27.506,0,49.001-9.964,64.485-29.896l35.084,39.284c-10.709,15.156-25.201,26.973-43.484,35.454
					C2687.312,2287.646,2667.052,2291.889,2644.816,2291.889z M2636.663,2072.243c-14.168,0-25.656,4.799-34.467,14.396
					c-8.812,9.598-14.453,23.329-16.924,41.195h99.322v-5.71c-0.332-15.882-4.613-28.166-12.848-36.852
					C2663.508,2076.586,2651.815,2072.243,2636.663,2072.243z"/>
			</g>
		</g>
	</g>
	<g id="Pfade_1_">
		<path fill="none" stroke="#FFFFFF" stroke-width="20" stroke-miterlimit="10" d="M1335.564,1907.416"/>
		<path fill="none" stroke="#FFFFFF" stroke-width="20" stroke-linecap="round" stroke-linejoin="round" stroke-miterlimit="10" d="
			M1727.081,1426.865c50.172-139.712,183.815-239.633,340.796-239.633c156.993,0,290.644,99.937,340.808,239.664"/>
		<g>
			<path fill="#FFFFFF" d="M2402.791,1418.754c0,0,0.585-1.433,1.684-4.119c0.549-1.343,1.226-3,2.022-4.947
				c0.414-0.982,0.791-2.001,1.318-3.156c0.515-1.147,1.062-2.366,1.64-3.654c1.17-2.561,2.407-5.452,3.866-8.485
				c1.485-3.005,3.091-6.254,4.807-9.726c1.794-3.431,3.78-7.041,5.832-10.862c2.132-3.778,4.481-7.69,6.875-11.796
				c1.274-2.008,2.574-4.057,3.899-6.146c1.341-2.078,2.632-4.239,4.115-6.331c2.908-4.218,5.825-8.633,9.121-12.962
				c6.365-8.816,13.677-17.658,21.507-26.524c1.997-2.182,4.01-4.382,6.038-6.598c2.038-2.204,4.203-4.321,6.318-6.504
				c1.065-1.084,2.133-2.172,3.204-3.264c1.107-1.054,2.218-2.111,3.332-3.171c2.242-2.103,4.434-4.277,6.743-6.343
				c9.16-8.353,18.947-16.274,29.027-23.759c10.111-7.454,20.677-14.243,31.291-20.51c10.643-6.233,21.497-11.658,32.125-16.572
				c5.39-2.298,10.618-4.703,15.9-6.667c2.63-1.006,5.199-2.077,7.791-2.995c2.596-0.908,5.158-1.804,7.688-2.688
				c2.515-0.919,5.043-1.687,7.529-2.451c2.482-0.769,4.928-1.526,7.333-2.271c2.429-0.659,4.816-1.306,7.161-1.941
				c2.35-0.608,4.624-1.314,6.908-1.8c2.271-0.526,4.496-1.042,6.67-1.545c2.172-0.507,4.291-1.011,6.383-1.384
				c2.085-0.403,4.116-0.796,6.09-1.178c1.976-0.373,3.884-0.784,5.76-1.043c3.735-0.582,7.232-1.126,10.465-1.629
				c3.247-0.388,6.23-0.744,8.924-1.065c1.346-0.159,2.62-0.31,3.818-0.451c1.203-0.101,2.331-0.196,3.381-0.284
				c2.098-0.17,3.883-0.314,5.33-0.431c2.893-0.234,4.435-0.359,4.435-0.359s-1.534,0.203-4.412,0.582
				c-1.438,0.19-3.211,0.424-5.296,0.699c-1.041,0.141-2.16,0.292-3.354,0.453c-1.188,0.202-2.451,0.416-3.785,0.643
				c-2.666,0.456-5.616,0.96-8.829,1.509c-3.189,0.663-6.639,1.379-10.324,2.146c-1.848,0.352-3.725,0.856-5.667,1.326
				c-1.939,0.478-3.935,0.969-5.982,1.474c-2.054,0.473-4.131,1.08-6.258,1.691c-2.128,0.607-4.304,1.229-6.526,1.863
				c-2.233,0.593-4.453,1.408-6.746,2.126c-2.283,0.745-4.61,1.503-6.977,2.275c-2.337,0.855-4.714,1.725-7.128,2.608
				c-2.413,0.877-4.866,1.759-7.301,2.792c-2.446,0.997-4.926,2.007-7.436,3.029c-2.505,1.032-4.982,2.216-7.517,3.335
				c-5.091,2.189-10.112,4.817-15.28,7.333c-10.184,5.35-20.528,11.189-30.605,17.797c-10.05,6.641-19.994,13.765-29.442,21.497
				c-9.418,7.763-18.502,15.906-26.939,24.417c-2.128,2.106-4.138,4.316-6.197,6.451c-1.021,1.075-2.041,2.147-3.057,3.216
				c-0.979,1.104-1.954,2.205-2.927,3.303c-1.931,2.208-3.911,4.344-5.764,6.564c-1.841,2.229-3.669,4.441-5.482,6.636
				c-7.091,8.9-13.666,17.715-19.323,26.456c-2.942,4.292-5.512,8.655-8.082,12.813c-1.313,2.062-2.438,4.19-3.616,6.233
				c-1.162,2.051-2.301,4.063-3.417,6.035c-2.078,4.028-4.124,7.854-5.968,11.544c-1.763,3.731-3.474,7.248-5.011,10.583
				c-1.459,3.37-2.824,6.524-4.087,9.441c-1.225,2.916-2.208,5.598-3.173,8.013c-0.473,1.208-0.92,2.351-1.342,3.426
				c-0.427,1.061-0.781,2.184-1.136,3.159c-0.697,1.985-1.29,3.674-1.77,5.043c-0.961,2.738-1.474,4.199-1.474,4.199
				c-1.83,5.213-7.539,7.956-12.751,6.126s-7.956-7.539-6.126-12.751C2402.664,1419.078,2402.733,1418.898,2402.791,1418.754z"/>
		</g>
		<g>
			<path fill="#FFFFFF" d="M1153.128,1290.303c0,0,1.966-1.877,5.653-5.397c1.854-1.748,4.092-3.958,6.815-6.455
				c2.793-2.427,6.003-5.216,9.598-8.34c0.909-0.77,1.802-1.611,2.792-2.38c0.984-0.777,1.993-1.574,3.025-2.389
				c2.066-1.631,4.228-3.339,6.482-5.119c1.137-0.877,2.256-1.829,3.473-2.695c1.215-0.87,2.453-1.757,3.714-2.659
				c2.523-1.807,5.137-3.678,7.838-5.612c1.331-0.998,2.78-1.864,4.21-2.808c1.439-0.931,2.9-1.875,4.382-2.834
				c1.483-0.959,2.987-1.932,4.511-2.918c0.767-0.487,1.522-1.004,2.312-1.475c0.795-0.462,1.596-0.928,2.402-1.396
				c3.225-1.875,6.533-3.799,9.919-5.769c1.675-1.021,3.457-1.89,5.23-2.823c1.779-0.924,3.577-1.858,5.394-2.802
				c14.583-7.436,30.861-14.711,48.762-20.527c17.855-5.911,37.186-10.742,57.519-13.89c2.547-0.354,5.105-0.71,7.673-1.068
				c1.285-0.179,2.572-0.358,3.861-0.537l1.937-0.269l1.95-0.174c5.208-0.46,10.454-0.924,15.731-1.391
				c5.296-0.207,10.625-0.415,15.981-0.625l1.005-0.039l0.503-0.02c0.015-0.005,0.261-0.005,0.327-0.003l0.249,0.001l1.993,0.011
				l3.993,0.022c2.666,0.018,5.338,0.036,8.015,0.055c2.719,0.123,5.444,0.246,8.174,0.369c2.726,0.146,5.482,0.188,8.188,0.469
				c2.718,0.232,5.44,0.464,8.166,0.697c1.362,0.128,2.73,0.207,4.089,0.376l4.08,0.511c2.723,0.341,5.448,0.683,8.174,1.025
				c2.723,0.378,5.428,0.878,8.147,1.313l4.076,0.676c1.36,0.219,2.72,0.444,4.065,0.743l8.1,1.672
				c21.593,4.552,42.701,11.398,62.756,19.862c10.066,4.157,19.75,8.977,29.223,13.916c2.35,1.269,4.655,2.604,6.973,3.896
				c1.157,0.651,2.312,1.302,3.465,1.951c1.16,0.639,2.303,1.3,3.418,2.004c2.248,1.38,4.488,2.755,6.719,4.125
				c1.115,0.688,2.227,1.374,3.337,2.059c1.085,0.723,2.168,1.445,3.249,2.166c17.368,11.423,33.173,23.979,47.164,36.976
				c14,12.994,26.183,26.421,36.559,39.507c10.387,13.086,18.963,25.823,26.04,37.43c1.723,2.932,3.39,5.769,5,8.508
				c1.598,2.747,2.982,5.481,4.396,8.063c2.869,5.147,5.145,10.057,7.312,14.44c0.534,1.1,1.053,2.17,1.558,3.21
				c0.468,1.057,0.923,2.083,1.364,3.079c0.881,1.992,1.707,3.858,2.476,5.595c1.586,3.456,2.73,6.479,3.703,8.913
				c1.934,4.875,2.966,7.474,2.966,7.474c2.037,5.134-0.474,10.948-5.608,12.986c-5.134,2.037-10.949-0.474-12.986-5.608
				c-0.029-0.074-0.058-0.147-0.085-0.221l-0.146-0.399c0,0-0.903-2.48-2.599-7.131c-0.852-2.325-1.846-5.215-3.254-8.519
				c-0.679-1.663-1.409-3.449-2.188-5.355c-0.389-0.954-0.791-1.937-1.204-2.95c-0.449-0.997-0.912-2.022-1.387-3.077
				c-1.933-4.201-3.948-8.917-6.528-13.866c-1.271-2.483-2.504-5.116-3.945-7.762c-1.452-2.641-2.956-5.377-4.509-8.205
				c-6.4-11.203-14.199-23.544-23.733-36.294c-9.524-12.749-20.78-25.901-33.817-38.717c-13.028-12.818-27.833-25.296-44.211-36.756
				c-1.019-0.724-2.04-1.448-3.063-2.175c-1.048-0.688-2.099-1.378-3.152-2.07c-2.109-1.379-4.226-2.764-6.351-4.154
				c-1.054-0.71-2.136-1.377-3.234-2.023c-1.092-0.656-2.186-1.314-3.282-1.973c-2.197-1.309-4.38-2.661-6.609-3.948
				c-8.989-5.016-18.198-9.942-27.805-14.233c-19.136-8.731-39.386-15.958-60.227-20.979l-7.823-1.851
				c-1.3-0.33-2.614-0.585-3.93-0.835l-3.943-0.771c-2.631-0.498-5.251-1.063-7.89-1.506c-2.645-0.409-5.288-0.818-7.929-1.226
				l-3.961-0.614c-1.319-0.204-2.65-0.317-3.974-0.48c-2.651-0.303-5.298-0.606-7.942-0.908c-2.648-0.354-5.276-0.464-7.909-0.682
				c-2.632-0.197-5.26-0.394-7.882-0.589c-2.673-0.095-5.34-0.19-8.001-0.285l-3.99-0.137l-1.992-0.068l-0.249-0.009
				c-0.1-0.004-0.021-0.003-0.171-0.002l-0.492,0.005l-0.984,0.01c-5.248,0.054-10.47,0.107-15.661,0.161
				c-5.184,0.309-10.336,0.616-15.452,0.921l-1.918,0.115l-1.905,0.21c-1.27,0.14-2.537,0.279-3.801,0.418
				c-2.53,0.278-5.051,0.556-7.561,0.832c-20.046,2.516-39.205,6.719-56.984,12.043c-17.824,5.228-34.121,11.956-48.78,18.907
				c-1.828,0.883-3.636,1.758-5.425,2.623c-1.785,0.874-3.579,1.685-5.267,2.65c-3.415,1.857-6.752,3.671-10.004,5.439
				c-0.814,0.442-1.623,0.882-2.425,1.318c-0.799,0.445-1.562,0.937-2.337,1.398c-1.542,0.936-3.063,1.859-4.563,2.769
				c-1.5,0.911-2.979,1.808-4.436,2.692c-1.448,0.897-2.917,1.718-4.267,2.671c-2.741,1.846-5.395,3.632-7.956,5.357
				c-1.281,0.863-2.54,1.71-3.774,2.542c-1.237,0.828-2.376,1.743-3.534,2.583c-2.296,1.708-4.499,3.347-6.604,4.914
				c-1.053,0.783-2.082,1.549-3.085,2.295c-1.01,0.739-1.92,1.55-2.848,2.29c-3.675,3.012-6.956,5.702-9.811,8.041
				c-2.793,2.417-5.093,4.562-6.997,6.256C1155.148,1288.483,1153.128,1290.303,1153.128,1290.303z"/>
		</g>
	</g>
</g>
<g id="B-small" display="none">
	<rect id="BG_1_" x="847.777" y="571.188" display="inline" fill="#183962" width="2440.211" height="2440.211"/>
	<g id="Pfade_Kopie" display="inline">
		
			<path fill="none" stroke="#FFFFFF" stroke-width="150" stroke-linecap="round" stroke-linejoin="round" stroke-miterlimit="10" d="
			M1777.308,2066.228c71.449-198.961,261.768-341.257,485.322-341.257c223.57,0,413.9,142.318,485.338,341.301"/>
		<g>
			<path fill="#FFFFFF" d="M2682.77,2033.115c0,0,1.056-1.956,3.036-5.623c0.989-1.834,2.21-4.096,3.646-6.755
				c0.754-1.392,1.564-2.889,2.429-4.484c1.018-1.851,2.099-3.817,3.24-5.895c1.146-2.066,2.353-4.244,3.619-6.527
				c0.634-1.137,1.283-2.3,1.946-3.488c0.332-0.594,0.668-1.192,1.007-1.799c0.342-0.562,0.688-1.13,1.035-1.704
				c2.791-4.545,5.81-9.461,9.035-14.714c3.338-5.173,6.997-10.599,10.796-16.312c3.913-5.653,8.18-11.482,12.548-17.567
				c2.293-2.969,4.633-6,7.018-9.089c2.406-3.065,4.752-6.243,7.375-9.313c5.166-6.191,10.376-12.631,16.146-18.913
				c11.217-12.788,23.864-25.46,37.265-37.98c3.4-3.07,6.83-6.166,10.285-9.283c1.698-1.575,3.529-3.037,5.305-4.555
				c1.786-1.503,3.579-3.01,5.377-4.522c1.796-1.505,3.596-3.015,5.402-4.529c1.854-1.456,3.715-2.916,5.579-4.379
				c1.862-1.456,3.729-2.915,5.601-4.378c1.882-1.446,3.71-2.951,5.661-4.329c3.845-2.793,7.705-5.598,11.577-8.411
				c1.911-1.423,3.909-2.748,5.894-4.087c1.982-1.336,3.967-2.674,5.954-4.013c1.982-1.332,3.967-2.666,5.952-4l6.093-3.813
				l6.089-3.793c2.032-1.256,4.034-2.545,6.126-3.713c4.133-2.376,8.265-4.752,12.394-7.126c2.038-1.21,4.175-2.275,6.263-3.399
				c2.094-1.107,4.188-2.214,6.278-3.32c2.088-1.096,4.174-2.191,6.257-3.285c2.119-1.028,4.235-2.054,6.349-3.079
				c2.108-1.019,4.213-2.037,6.313-3.053c2.098-1.015,4.181-2.038,6.322-2.95c4.24-1.867,8.464-3.727,12.666-5.578
				c2.078-0.95,4.23-1.755,6.341-2.61c2.114-0.842,4.222-1.682,6.323-2.52c2.097-0.833,4.187-1.663,6.27-2.49
				c2.109-0.76,4.213-1.518,6.309-2.273c4.196-1.486,8.325-3.004,12.455-4.407c8.354-2.61,16.427-5.357,24.529-7.469
				c2.01-0.557,4.009-1.11,5.996-1.66c1.99-0.535,3.94-1.13,5.934-1.574c3.953-0.942,7.858-1.874,11.711-2.792
				c1.927-0.438,3.812-0.947,5.729-1.316c1.91-0.383,3.806-0.763,5.687-1.14c3.747-0.748,7.438-1.483,11.067-2.207
				c3.648-0.595,7.235-1.179,10.757-1.753c1.754-0.283,3.491-0.563,5.212-0.841c0.859-0.137,1.713-0.274,2.563-0.41
				c0.857-0.107,1.71-0.214,2.559-0.32c3.384-0.42,6.696-0.832,9.934-1.234c1.613-0.199,3.208-0.396,4.783-0.59
				c1.569-0.209,3.147-0.295,4.687-0.445c3.081-0.267,6.082-0.526,9-0.779c2.913-0.239,5.724-0.537,8.479-0.629
				c5.474-0.268,10.597-0.519,15.333-0.751c4.729-0.062,9.074-0.118,12.997-0.169c1.953-0.021,3.802-0.042,5.54-0.062
				c1.741,0.014,3.377,0.077,4.894,0.109c3.029,0.078,5.606,0.145,7.695,0.199c4.163,0.109,6.384,0.168,6.384,0.168
				s-2.162,0.524-6.215,1.508c-2.02,0.491-4.509,1.096-7.437,1.808c-1.46,0.362-3.03,0.723-4.697,1.16
				c-1.66,0.469-3.425,0.968-5.288,1.496c-3.709,1.056-7.814,2.224-12.284,3.497c-4.409,1.429-9.178,2.974-14.272,4.625
				c-2.546,0.779-5.127,1.783-7.792,2.745c-2.656,0.972-5.388,1.971-8.192,2.997c-1.395,0.528-2.822,0.995-4.235,1.589
				c-1.415,0.578-2.849,1.163-4.298,1.755c-2.887,1.18-5.842,2.387-8.858,3.62c-0.751,0.308-1.507,0.616-2.267,0.927
				c-0.75,0.338-1.504,0.679-2.263,1.021c-1.513,0.685-3.039,1.375-4.581,2.073c-3.069,1.392-6.196,2.81-9.377,4.252
				c-3.123,1.555-6.3,3.135-9.525,4.741c-1.604,0.799-3.223,1.604-4.852,2.415c-1.632,0.794-3.225,1.729-4.853,2.595
				c-3.232,1.76-6.509,3.544-9.825,5.35c-1.666,0.869-3.28,1.89-4.927,2.85c-1.639,0.971-3.286,1.949-4.943,2.931
				c-6.67,3.802-13.193,8.222-19.876,12.467c-3.295,2.219-6.56,4.545-9.862,6.827c-1.644,1.148-3.293,2.301-4.947,3.457
				c-1.616,1.214-3.238,2.432-4.864,3.654c-1.621,1.217-3.247,2.438-4.877,3.662c-1.621,1.232-3.276,2.411-4.852,3.729
				c-3.174,2.568-6.364,5.148-9.567,7.739c-1.612,1.263-3.159,2.632-4.714,3.989c-1.553,1.352-3.109,2.706-4.667,4.062
				c-1.553,1.35-3.107,2.703-4.665,4.056c-1.511,1.409-3.023,2.819-4.538,4.23l-4.525,4.23c-1.497,1.422-3.038,2.779-4.476,4.274
				c-2.907,2.92-5.817,5.843-8.728,8.767c-1.471,1.428-2.848,2.972-4.249,4.475l-4.186,4.516l-4.164,4.495l-4,4.641
				c-1.328,1.539-2.654,3.076-3.979,4.611c-1.323,1.532-2.657,3.042-3.899,4.644c-2.521,3.141-5.035,6.273-7.539,9.393
				c-1.272,1.527-2.42,3.174-3.619,4.755c-1.185,1.59-2.367,3.176-3.547,4.759c-1.175,1.576-2.348,3.148-3.516,4.717
				c-1.113,1.611-2.224,3.219-3.33,4.822c-1.104,1.595-2.204,3.186-3.301,4.771c-1.082,1.594-2.22,3.124-3.224,4.76
				c-2.056,3.213-4.097,6.401-6.12,9.563c-7.85,12.781-14.979,25.254-20.883,37.468c-3.113,5.996-5.718,12.056-8.354,17.793
				c-1.357,2.844-2.454,5.775-3.633,8.578c-1.156,2.807-2.291,5.561-3.402,8.258c-2,5.499-3.993,10.689-5.741,15.671
				c-1.633,5.042-3.237,9.764-4.646,14.226c-1.296,4.491-2.509,8.694-3.631,12.581c-0.139,0.481-0.275,0.957-0.411,1.429
				c-0.103,0.443-0.204,0.881-0.304,1.315c-0.202,0.864-0.398,1.71-0.592,2.536c-0.388,1.644-0.758,3.21-1.109,4.697
				c-3.364,14.247-5.286,22.389-5.286,22.389l-0.022,0.095c-9.603,40.667-50.354,65.851-91.021,56.249
				c-40.668-9.603-65.852-50.354-56.249-91.022C2677.25,2045.17,2679.773,2038.744,2682.77,2033.115z"/>
		</g>
		<g>
			<path fill="#FFFFFF" d="M959.953,1871.751c0,0,2.605-2.878,7.49-8.274c2.494-2.649,5.583-5.932,9.269-9.745
				c1.869-1.878,3.877-3.897,6.021-6.051c2.128-2.177,4.506-4.359,6.96-6.742c9.903-9.425,22.35-20.508,37.47-32.325
				c1.867-1.511,3.836-2.943,5.807-4.443c1.981-1.485,3.978-3.021,6.038-4.53c4.162-2.95,8.382-6.111,12.876-9.105
				c8.881-6.175,18.526-12.237,28.764-18.347c20.532-12.099,43.74-23.903,69.411-34.122c12.826-5.121,26.236-9.934,40.192-14.191
				c13.957-4.25,28.437-8.021,43.352-11.203c14.914-3.184,30.261-5.777,45.932-7.703c3.926-0.429,7.863-0.86,11.812-1.292
				c3.955-0.389,7.929-0.686,11.919-1.032l1.497-0.125l0.749-0.062c-0.389-0.016,0.966-0.02,0.942-0.021l0.355-0.02l2.841-0.159
				c1.895-0.105,3.793-0.211,5.692-0.317c3.81-0.207,7.629-0.414,11.455-0.622c4.167-0.047,8.343-0.095,12.526-0.143
				c2.099-0.019,4.199-0.038,6.301-0.057c1.044,0,2.124-0.036,3.142-0.005l3.065,0.083c4.097,0.116,8.2,0.232,12.308,0.349
				c2.055,0.077,4.122,0.083,6.176,0.22l6.171,0.416c4.126,0.284,8.256,0.568,12.388,0.852c4.131,0.338,8.246,0.854,12.382,1.28
				l6.206,0.676c2.072,0.218,4.145,0.443,6.199,0.776l12.378,1.836c33.037,5.06,65.704,13.649,97.057,24.889
				c15.732,5.513,30.963,12.054,45.923,18.855c3.714,1.747,7.365,3.596,11.037,5.39c1.833,0.905,3.664,1.809,5.491,2.711l2.74,1.356
				l2.686,1.439c3.576,1.934,7.14,3.861,10.69,5.781c1.775,0.968,3.547,1.934,5.315,2.898c1.734,1.022,3.463,2.042,5.19,3.059
				c27.742,16.152,53.288,34.275,76.138,53.325c22.865,19.043,43.029,39.005,60.392,58.663c17.38,19.657,31.956,39,44.093,56.757
				c2.966,4.493,5.837,8.841,8.607,13.038c1.418,2.087,2.648,4.228,3.924,6.292c1.26,2.075,2.497,4.11,3.709,6.105
				c4.959,7.933,8.997,15.514,12.793,22.307c0.937,1.705,1.872,3.354,2.735,4.979c0.833,1.64,1.643,3.231,2.428,4.775
				c1.567,3.097,3.035,5.998,4.402,8.698c2.799,5.381,4.884,10.092,6.636,13.891c3.482,7.622,5.339,11.687,5.339,11.687
				c17.272,37.806,0.626,82.456-37.18,99.729s-82.456,0.626-99.729-37.18c-1.551-3.394-2.828-6.843-3.841-10.323l-0.429-1.542
				c0,0-0.899-3.17-2.585-9.113c-0.847-2.978-1.808-6.688-3.272-10.934c-0.695-2.142-1.442-4.442-2.239-6.897
				c-0.397-1.232-0.807-2.502-1.229-3.811c-0.451-1.296-0.96-2.61-1.458-3.975c-2.042-5.432-4.116-11.561-6.917-18.004
				c-0.67-1.628-1.355-3.289-2.052-4.982c-0.712-1.688-1.364-3.45-2.194-5.158c-1.588-3.465-3.234-7.055-4.934-10.763
				c-7.056-14.728-15.801-31.1-26.791-48.235c-10.976-17.134-24.193-35.024-39.833-52.736
				c-15.627-17.713-33.675-35.241-53.993-51.678c-1.264-1.039-2.53-2.079-3.799-3.122c-1.306-0.992-2.615-1.985-3.927-2.981
				c-2.631-1.996-5.272-3.999-7.923-6.009l-1.997-1.509l-2.052-1.431c-1.37-0.957-2.743-1.916-4.117-2.876
				c-2.758-1.911-5.499-3.891-8.307-5.782c-11.333-7.376-23.006-14.713-35.292-21.231c-24.459-13.247-50.693-24.697-78.087-33.269
				l-10.297-3.181c-1.713-0.562-3.449-1.019-5.188-1.471l-5.214-1.383c-3.482-0.902-6.953-1.903-10.456-2.734
				c-3.518-0.786-7.033-1.57-10.544-2.354l-5.279-1.185c-1.76-0.395-3.538-0.661-5.307-1c-3.548-0.646-7.093-1.292-10.632-1.937
				l-2.659-0.487c-0.889-0.166-1.728-0.256-2.594-0.389l-5.162-0.741c-3.453-0.503-6.899-1.006-10.339-1.508
				c-7.361-0.706-14.693-1.409-21.988-2.108c-3.562-0.228-7.123-0.508-10.678-0.698c-3.56-0.152-7.109-0.304-10.648-0.455
				c-14.171-0.413-28.232-0.191-42.072,0.625c-13.84,0.814-27.459,2.223-40.754,4.152c-13.294,1.937-26.242,4.472-38.782,7.388
				c-25.096,5.808-48.439,13.507-69.545,21.968c-10.525,4.29-20.564,8.647-29.913,13.24c-4.728,2.203-9.199,4.604-13.625,6.824
				c-2.192,1.145-4.325,2.324-6.444,3.459c-2.11,1.151-4.22,2.241-6.23,3.419c-16.268,9.148-29.999,18.064-41.063,25.792
				c-2.745,1.959-5.406,3.746-7.808,5.556c-2.422,1.791-4.692,3.47-6.804,5.033c-4.175,3.183-7.695,5.94-10.56,8.185
				C962.961,1869.298,959.953,1871.751,959.953,1871.751z"/>
		</g>
	</g>
</g>
</svg>
