<svg xmlns="http://www.w3.org/2000/svg" viewBox="0 0 3000 2771.32"><defs><style>.cls-1{fill:#fff;}</style></defs><title>alumni-logo</title><g id="Ebene_2" data-name="Ebene 2"><g id="logo"><path class="cls-1" d="M444.49,2771.32l-143.71-63.57q194.46-442,387.51-880.73c-214.21,107.78-407.3,242.58-575.57,412L0,2126.75c46.9-42.92,92.71-88,141.77-129.16q284.76-239.13,625.87-388c11.48-5,23.1-16.83,28.18-28.33Q1136.91,809,1476.64,36.16c4.76-10.81,9.69-21.55,16.27-36.16,30.48,69.25,59.41,135,88.34,200.65q305.16,693.09,610.87,1385.95c4.45,10.08,15.65,19.77,26,24.27,267.61,116.06,510.78,270.18,728,465,3,2.65,5.85,5.38,8.73,8.12,14.37,13.7,28.71,27.41,45.12,43.08L2891.77,2241.4c-176.08-170.4-375.06-305.32-594.44-414q193.36,439.47,387.39,880.49c-48.27,21.22-95.23,41.87-144.23,63.43-19.38-43.81-38-85.66-56.43-127.56q-197.68-449-395.92-897.7c-5-11.31-17.23-23-28.77-27.32-206.33-76.23-418.74-117.36-639.61-106.1-172.75,8.8-339.44,46.6-500.81,108.12-8.66,3.31-16.74,13.79-20.75,22.85q-222,502-443,1004.48C452.06,2755.24,448.65,2762.3,444.49,2771.32ZM1492.74,391.18c-167.85,381.39-333.19,757.05-500.66,1137.56,166.86-48.59,331.51-75.1,500.05-75.18,169.31-.1,334.55,27.65,501.66,76.07Z"/></g></g></svg>