<svg xmlns="http://www.w3.org/2000/svg" viewBox="0 0 2440.21 2440.21"><defs><style>.cls-1{fill:#183962;}.cls-2{font-size:500px;font-family:Roboto-Regular, Roboto;}.cls-2,.cls-3,.cls-7{fill:#fff;}.cls-3{font-size:506px;font-family:Roboto-Bold, Roboto;font-weight:700;}.cls-4{letter-spacing:-0.01em;}.cls-5{letter-spacing:-0.02em;}.cls-6{fill:none;stroke:#fff;stroke-linecap:round;stroke-linejoin:round;stroke-width:20px;}</style></defs><title>be-blue-bg</title><g id="Ebene_2" data-name="Ebene 2"><g id="Ebene_13" data-name="Ebene 13"><rect id="BG" class="cls-1" width="2440.21" height="2440.21"/></g><g id="B"><g id="Text"><g id="Text_Kopie" data-name="Text Kopie"><text class="cls-2" transform="translate(335.35 1233.07)">Bridging</text></g><g id="Text_Kopie_Kopie" data-name="Text Kopie Kopie"><text class="cls-3" transform="translate(210.35 1715.76)"> <tspan class="cls-4" x="126.01" y="0">E</tspan><tspan x="406.43" y="0">u</tspan><tspan class="cls-5" x="689.57" y="0">r</tspan><tspan x="865.24" y="0">ope</tspan></text></g></g><g id="Pfade"><path class="cls-6" d="M879.3,855.68C929.48,716,1063.12,616,1220.1,616S1510.74,716,1560.91,855.71"/><path class="cls-7" d="M1555,847.74a356.36,356.36,0,0,1,121.41-158.52,349.44,349.44,0,0,1,185-67.27,344.32,344.32,0,0,0-244.67,146.39,338.37,338.37,0,0,0-42.9,86.16,10,10,0,1,1-19-6.27c0-.15.1-.3.15-.45Z"/><path class="cls-7" d="M305.35,719.12l7.87-7.51,3.93-3.76,4.11-3.57,8.21-7.14,8.54-6.76,4.28-3.38c1.46-1.08,2.95-2.12,4.42-3.18l8.86-6.35c3-2,6.1-4,9.15-5.94l4.58-3c1.54-1,3.13-1.84,4.7-2.77l9.43-5.49c3.19-1.75,6.45-3.37,9.67-5.07l4.85-2.51c1.61-.86,3.29-1.55,4.94-2.34l9.93-4.57A351.32,351.32,0,0,1,454,631l5.26-1.55,2.62-.77,2.66-.65,10.66-2.57c3.53-.94,7.14-1.52,10.73-2.22s7.18-1.42,10.79-2l10.86-1.51,5.44-.75,5.47-.49,10.94-1c3.65-.24,7.31-.31,11-.48l5.5-.21c.91,0,1.83-.09,2.74-.09l2.75,0,11,.06c7.32.34,14.66.56,22,1.3a337.69,337.69,0,0,1,43.56,6.56C685.44,636.87,739.8,664.3,784.6,703a358.75,358.75,0,0,1,100.93,144.8,10,10,0,0,1-18.72,7l-.08-.23,0-.06a341.38,341.38,0,0,0-92.08-140.35c-41.84-38.3-93.44-66.36-149-79.83a327,327,0,0,0-42.2-7.6c-7.1-.94-14.25-1.35-21.4-1.89l-10.74-.37-2.69-.09c-.89,0-1.79,0-2.69,0l-5.37.06c-3.59.06-7.18,0-10.76.16L519,625.3l-5.37.33-5.36.58-10.71,1.18c-3.56.46-7.09,1.11-10.64,1.65s-7.12,1.06-10.62,1.88l-10.55,2.23-2.64.57-2.61.68-5.22,1.37a347.67,347.67,0,0,0-41,13.51l-9.95,4.24c-1.65.73-3.35,1.36-5,2.17L394.49,658c-3.24,1.59-6.52,3.11-9.73,4.75L375.24,668c-1.58.87-3.19,1.7-4.74,2.61l-4.63,2.81c-3.09,1.89-6.19,3.73-9.26,5.65l-9,6.06c-1.49,1-3,2-4.49,3l-4.35,3.24-8.71,6.49-8.4,6.88-4.2,3.45-4,3.64Z"/></g></g></g></svg>