<svg xmlns="http://www.w3.org/2000/svg" viewBox="0 0 2440.21 2440.21"><defs><style>.cls-1{fill:#183962;}.cls-2{fill:none;stroke:#fff;stroke-linecap:round;stroke-linejoin:round;stroke-width:150px;}.cls-3{fill:#fff;}</style></defs><title>be-simple</title><g id="Ebene_2" data-name="Ebene 2"><g id="B-small"><rect id="BG" class="cls-1" width="2440.21" height="2440.21"/><g id="Pfade_Kopie" data-name="Pfade Kopie"><path class="cls-2" d="M929.53,1495c71.45-199,261.77-341.26,485.32-341.26s413.9,142.32,485.34,341.3"/><path class="cls-3" d="M1834.53,1463.19a556.28,556.28,0,0,1,91-131.94A541.68,541.68,0,0,1,2046,1234a519.51,519.51,0,0,1,138.34-57.12A499.78,499.78,0,0,1,2328,1162.2a480.92,480.92,0,0,0-130,49.56,463.21,463.21,0,0,0-106.15,81.53,447.52,447.52,0,0,0-75.48,104.22,423.81,423.81,0,0,0-40.72,116.38A75.89,75.89,0,1,1,1833,1466.3Z"/><path class="cls-3" d="M112.18,1300.56A503.87,503.87,0,0,1,260.8,1185.67a516.88,516.88,0,0,1,58.87-25.42,525.83,525.83,0,0,1,62.18-17.92,532.16,532.16,0,0,1,64.47-10.1l8.17-.69c1.36-.1,2.73-.24,4.09-.32l4.1-.21,16.42-.85,16.48-.2,4.13,0c1.38,0,2.75.06,4.13.09l8.26.23a509.11,509.11,0,0,1,66.16,6.18A545.85,545.85,0,0,1,643.73,1151a562.15,562.15,0,0,1,63.62,23,527.5,527.5,0,0,1,60.73,31l7.37,4.37c2.47,1.46,4.83,3.06,7.25,4.59l7.22,4.65c2.41,1.54,4.83,3.09,7.16,4.76l14.11,9.86L825,1243.59c72.88,56.3,132.48,132.25,170.63,219.72l.48,1.11a75.25,75.25,0,1,1-138,60.16,81.63,81.63,0,0,1-3.71-10.58,424.6,424.6,0,0,0-39.8-98.65l-3.26-5.92c-1.14-1.94-2.33-3.85-3.49-5.78l-3.5-5.79-1.75-2.91-1.87-2.82-7.49-11.35-7.91-11.09a460.55,460.55,0,0,0-35.17-42.06l-9.62-9.91-10-9.55c-1.64-1.63-3.38-3.14-5.12-4.67l-5.19-4.6c-1.75-1.52-3.44-3.12-5.24-4.58l-5.38-4.4a428.51,428.51,0,0,0-45.38-32.72,473.65,473.65,0,0,0-49.62-27,468.23,468.23,0,0,0-53.2-20.67,437.59,437.59,0,0,0-56-14l-7.14-1.31c-1.2-.2-2.39-.46-3.59-.63l-3.59-.5-14.44-2-14.53-1.45-3.65-.37c-1.21-.12-2.43-.18-3.65-.27l-7.31-.49a472.37,472.37,0,0,0-117.83,7.91,484.73,484.73,0,0,0-58.05,15.22,478.71,478.71,0,0,0-56.22,22.64A493,493,0,0,0,112.18,1300.56Z"/></g></g></g></svg>