<svg xmlns="http://www.w3.org/2000/svg" viewBox="0 0 2073.24 1715.03"><defs><style>.cls-1{font-size:500px;font-family:Roboto-Regular, Roboto;}.cls-1,.cls-2,.cls-6{fill:#fff;}.cls-2{font-size:506px;font-family:Roboto-Bold, Roboto;font-weight:700;}.cls-3{letter-spacing:-0.01em;}.cls-4{letter-spacing:-0.02em;}.cls-5{fill:none;stroke:#fff;stroke-linecap:round;stroke-linejoin:round;stroke-width:20px;}</style></defs><title>be-transparent</title><g id="Ebene_2" data-name="Ebene 2"><g id="B"><g id="Text"><g id="Text_Kopie" data-name="Text Kopie"><text class="cls-1" transform="translate(125 627.03)">Bridging</text></g><g id="Text_Kopie_Kopie" data-name="Text Kopie Kopie"><text class="cls-2" transform="translate(0 1109.71)"> <tspan class="cls-3" x="126.01" y="0">E</tspan><tspan x="406.43" y="0">u</tspan><tspan class="cls-4" x="689.57" y="0">r</tspan><tspan x="865.24" y="0">ope</tspan></text></g></g><g id="Pfade"><path class="cls-5" d="M669,249.63C719.12,109.92,852.77,10,1009.75,10s290.64,99.94,340.8,239.66"/><path class="cls-6" d="M1344.6,241.69A356.07,356.07,0,0,1,1466,83.18a349.21,349.21,0,0,1,185-67.27A344.32,344.32,0,0,0,1406.31,162.3a338.6,338.6,0,0,0-42.89,86.15,10,10,0,1,1-19-6.27c0-.15.1-.3.16-.44Z"/><path class="cls-6" d="M95,113.07l7.86-7.51,3.94-3.76,4.1-3.57,8.22-7.14,8.54-6.75L131.94,81c1.45-1.08,2.94-2.12,4.42-3.19l8.86-6.34c3-2,6.1-4,9.14-5.94l4.58-3c1.54-1,3.14-1.84,4.7-2.76l9.44-5.49c3.19-1.75,6.45-3.38,9.67-5.07l4.85-2.52c1.6-.86,3.29-1.55,4.94-2.33l9.93-4.57A348.92,348.92,0,0,1,243.6,24.91l5.25-1.54,2.63-.77,2.66-.65,10.65-2.58c3.54-.93,7.15-1.51,10.74-2.22s7.17-1.41,10.78-2l10.87-1.51,5.44-.75,5.47-.49,10.94-1c3.65-.25,7.31-.32,11-.48l5.49-.22c.92,0,1.83-.09,2.75-.08H341l11,.06c7.32.35,14.66.56,22,1.31A337.54,337.54,0,0,1,417.5,18.6C475.09,30.82,529.44,58.25,574.25,97a358.82,358.82,0,0,1,100.93,144.8,10,10,0,1,1-18.72,7,2,2,0,0,1-.08-.22l0-.06A341.58,341.58,0,0,0,415.26,28.34a329.31,329.31,0,0,0-42.2-7.6c-7.1-.93-14.25-1.34-21.4-1.89l-10.74-.37-2.69-.09c-.9,0-1.79,0-2.69,0l-5.38.06c-3.58.05-7.17,0-10.76.15l-10.74.65-5.38.32-5.35.59-10.71,1.17c-3.56.47-7.1,1.11-10.65,1.66s-7.11,1.05-10.61,1.88L255.4,27.11l-2.64.56-2.6.69-5.22,1.37a344.64,344.64,0,0,0-41,13.51l-10,4.23c-1.65.73-3.34,1.37-5,2.17L184.14,52c-3.24,1.59-6.52,3.1-9.73,4.75l-9.52,5.17c-1.58.88-3.19,1.7-4.75,2.62l-4.63,2.81c-3.08,1.88-6.19,3.73-9.26,5.64l-9,6.06c-1.5,1-3,2-4.49,3l-4.36,3.24-8.7,6.49-8.4,6.89-4.2,3.44-4,3.64Z"/></g></g></g></svg>