<svg xmlns="http://www.w3.org/2000/svg" viewBox="0 0 363.33 504.84"><defs><style>.cls-1{fill:#fff;}</style></defs><title>dns-logo</title><g id="Ebene_2" data-name="Ebene 2"><g id="Ebene_1-2" data-name="Ebene 1"><path class="cls-1" d="M52.12,105.84c-2.4,4.27-6.75,6.08-10.43,8.84-2.21,1.66-4.85,3.39-6.72,5.71a6,6,0,0,1-6.51,2.41c-3.72-.74-7.37-.17-10.28,2.82-1.32,1.35-2.76,2.81-4.76,3-1.32.16-3.63.85-2.35-2.1.32-.72.13-1.22-.57-1.34s-1.48-1.09-2.2,0c-.29.46-.53,1.25-1.28.82a1.58,1.58,0,0,1-.58-1.92,10,10,0,0,1,.83-2.36c.49-.91,1.72-1.74.81-2.8a2.48,2.48,0,0,0-3-.16c-2.41,1.63-3.26-.29-4.45-1.62-1.43-1.6.13-2.57.53-4,1.64-5.77,6.75-7.18,11-10,3.63-2.42,7.36-4.75,10.86-7.44a53.57,53.57,0,0,1,8-4.5C39.27,87,46.47,80.9,55,77c1-.45,1.92-2.43,3,0a2.69,2.69,0,0,0,.94-.15c-.26-3,3.56-2.27,4.13-4.4a3.83,3.83,0,0,1,2.77-2.59c7.61-2.64,13.14-8.6,20-12.33A97.64,97.64,0,0,0,96,51.23c5.12-3.63,11.32-5.49,15.82-10,1.62-1.62,3.89-2,5.78-3.11,7.59-4.57,15.1-9.39,23.49-12.48.44-.16.94-.18,1.08-.77.72-3,3.39-3.79,5.65-5.07,4.81-2.73,5.87-5.57,5-11.06a7.85,7.85,0,0,1,2.87-7.59c2.25-1.83,4-1.09,6.49-.38,2.71.78,4.14,1.94,5,4.37.69,2.07,2.28,2.1,4.09,1.84,2.7-.4,4.29.39,4.31,3.59,0,5.11.81,5.47,5.91,7.37,7.47,2.78,14.76,6,22.14,9.06,5.2,2.14,10.37,4.42,15.6,6.4,6.08,2.29,11.64,5.87,17.87,7.51,8.65,2.26,16.33,6.71,24.5,10,5.06,2.07,9.79,5,14.87,7.22,5.75,2.53,11.87,4.12,17.37,7.22,4,2.25,8,4.69,12.3,6.25,7,2.54,13.21,6.82,20.37,9.15,5.46,1.79,10.56,4.78,15.64,7.58a27.14,27.14,0,0,0,5.89,2.81,24.88,24.88,0,0,1,10.33,6.2c2.28,2.08,4.09,4.38,3.57,7.8-.27,1.78,1,3.32,1.35,4.92-1.12.74-1.63.06-2-.49-1.11-1.71-2.41-.39-3.53-.19-1.76.3-.11,2.68-1.91,3.4-1.27.5-1.29-3-3.16-.54-.85,1.12-.14-1.64-1.24-1.85-1.32.93-1.57,5.39-4.5,1.22-.56-.8-1.68.62-1.62,1.59.11,2-1.24,2.14-2.57,2.18a2.21,2.21,0,0,1-2.24-1.5c-.49-1.27.15-1.6,1.29-1.89a1.89,1.89,0,0,0,1.29-2.28c-.18-1-1.1-1.11-2-1.17a17.15,17.15,0,0,1-3.88-.39c-1.66-.52-1.9,0-1.71,1.49.27,2-.49,1.74-2,1A141.49,141.49,0,0,0,311.47,102c-2.46-.71-6.84-.75-8-5.43-.51-2-4.58-1.78-7-1.62-1.86.13-3.47.66-4.83-1.06-.65-.81-1.5-.53-2.3-.18-.64.28-1.45.75-1.78-.21-.26-.78.5-1.18,1.13-1.6,2.25-1.51,2.23-1.54.81-4.5-2.13,3.93-5.11,4.43-8.53,1.13a6.58,6.58,0,0,0-3.33-1.75,52.86,52.86,0,0,1-11.26-4.5,6.94,6.94,0,0,0-3.4-1,6.28,6.28,0,0,1-5.13-2.13,8,8,0,0,0-5.41-2.43c-3.36-.2-5.91-1.59-6-5.31,0-2.12-1.74.55-2.1-1-.46-2-1.61-1.69-2.62-.14-.73,1.11-1.65.61-2.53.15-2-1.06-4.29-1.8-6-3.23s-2.84-1.1-4.12.62c-.55-1.86-.63-3.33-3.22-3.66-2.08-.26-4.1-2.37-5.5-4.37-.56-.8-1-1.39-2-.77-3.12,2-5.8.88-8.67-.82A22.82,22.82,0,0,0,202,55.42c-1.21-.21-2.39-.44-2.71-1.91-.08-.34-.17-.91-.35-.95-5.9-1.37-10.46-6-16.61-6.78-1.76-.22-4.17-.13-5.09-1.21-2-2.38-3.41-4.54-6.88-1.87-.45.35-3.18-2-4.69-3.34-3.48-3-7-2.4-10.27,1s-6.23,7.28-10.89,9.29c-2.36,1-4.29,3.11-6.24,4.9-1.39,1.26-2.35,3-4.64,2.77-.88-.1-1.12.72-1.45,1.35s-.72,1.8-1.31,1.48c-3-1.63-4.61,1.64-7.06,1.7a.82.82,0,0,0-.85.94c.69,5.44-4.09,5.7-7.19,7.31-1.86,1-3.94,1.37-4.18,4.05-3.61-3.1-8.14-1.36-9,3.16-.42,2.24-1.11,3.65-3.73,2.84-.66-.21-1.51-.49-2,.19-2.45,3.31-6.73,4-9.54,6.59A16.6,16.6,0,0,1,80,91.08c-.59.14-1.17.63-.79,1.33,1.38,2.49-1.22,3.07-2.09,2.93-3.21-.49-5.29,2.81-8.71,2-2.32-.56-2.61,4.34-4.38,3.75-3-1-4.12.32-5.06,2.31-1.47,3.11-3.48,3.68-6.33,2-.25-.27-.53-.55-.81-.08C51.74,105.37,52,105.65,52.12,105.84Z"/><path class="cls-1" d="M275.48,174a4.52,4.52,0,0,1,.23-3.77c.43-.69,2.25-1,1.13-2-.72-.6-2.39-.2-3.61,0-1,.14-1.28,1.1-1,2,1.34,4-.85,4.93-4.11,4.59-4.3-.45-2,3.09-3.24,5-1.39-1.38-5.13-.75-3.17-4.68a1.14,1.14,0,0,0-.64-1.75,1.39,1.39,0,0,0-1.93,1c-.26,1.38-.58,2.59-2.31,2.63l.06,0c-.65-1.28-2.09-1.49-3.09-2.29-.75-.61-1.08-.45-1.41.57-.6,1.87-2.39,2.68-4.06,3.07-1.43.34-3.32,2.4-4.47-1.18-.57-1.79-3.5-3-4.88-5.4-1.07,1.72.6,3.15-.48,4.5-1.86-3.3-4.39,0-6.61-.69-.58-.18-1.71.63-2,.36-3.17-3.08-5.6-.75-8.5,1.51.69-4.3-1-5.5-4.49-4.45-.53.16-1.17-.12-1.75-.07-1.56.15-2.35-4.76-4.43-.72-.83,1.63-3.51,1.37-3.17,4.2-2.25-2,.21-4-1-5.91-1.4,1.39-2,3.33-4.65,3.33-1.72,0-1,2.84-.53,4.89-.72-.5-1.2-.64-1.25-.88-.94-4.64-5.2-4.63-8.44-5.79-1.77-.63-2.72,1.17-3.27,2.67s-1.24,1.63-3,1.76c-4.29.32-7.63-2.93-11.8-2.44-.69.08-1-.56-.92-1.24a1.87,1.87,0,0,1,2.17-1.47,5,5,0,0,0,5.21-3.47c.18-.47.42-.87,0-1.28a.91.91,0,0,0-1.29,0c-2.76,2-5.51,3.72-9.2,2.43-.89-.31-1.89.73-1.92,1.76-.08,3-1.91,3-3.89,2.24-2.17-.78-2.78.12-2.8,2.07,0,1.62-1,2.22-2.47,2.48-.47-5.06-.47-5.06-6.69-5.26,1.82,2.08.86,3.56-.66,5.06-.53.53-.86,1.24-1.67.77-1-.57-.21-1.18.08-1.76.53-1,1.52-2.35,0-3-1.16-.53-3-1.75-3.79.77h-1.46c-1.73-2.2-4.21-1.77-6.29.91s-5.39,2.53-8.18,3.31c-1.55.44-1.35-1-.19-1.91.87-.66,1.87-1.62.92-2.64s-1.76-.22-2.78.67c-1.67,1.48-3.59,2.83-5.75-.11-1.65-2.24-2.84-.09-3.64,1.37-2.24,4.07-2.05,3.85-5.79,1.39-2.81-1.83,1.36-2.35.15-3.73-4.92-.81-8.53,3.31-13.21,4.14-2.34.41-3.26.24-3.93-1.73-.5-1.46-1.5-2.45-2.28-.67-1.25,2.87-3.68,2.93-5.94,3.07s-5.42,2-6.69-.11c-2.21-3.73-4-1.91-6.22-.61-1.41.82-1.55-.46-1.82-1.33-.37-1.19.4-2.7-1.23-3.8a2.45,2.45,0,0,0-.31,2.53c1.4,3.33-.45,3.22-2.68,2.51-2.73-.88-6,1.51-8.4-1.42-.2-.24-.59.26-.58.63.13,2.44-1.2,1.4-2.22.91-3.79-1.86-7.87-1.19-11.49-.23-2.64.69-3.65-2.09-6-1.31-3.12,1-6.29-.73-9.53-.34-2.25.28-4.36-.69-6.73,1.16-1.62,1.27-3.28-1.32-3.59-3.11a13.17,13.17,0,0,0-1.4-4c-.24-.47-.73-1.64-1.37-.29-1,2-1.64,1-1.51-.28.57-5.67-.54-11.27-.46-16.9,0-3.34,2.14-5.27,5.45-5.42,7.27-.35,14.54-1,21.72-1.8s14.36-.59,21.36-2.11a39,39,0,0,1,10.66-.52c4.29.24,8.61-.52,12.82-.66,4.95-.16,9.88-.81,14.84-.91,6.74-.14,13.51-.19,20.21-.13,6.36,0,12.56-3.06,18.93-.78,1.22.44,3.06-.33,3.42,1.8.09.54.58.7,1.08.35,5.38-3.7,11.42-2.7,17.34-2.41,3.72.18,7.59.37,11.16.27,5.25-.14,10.65.42,15.91-.68a32.42,32.42,0,0,1,4.63-.46c1.43-.09,2.52.2,2.68,2,.08,1,.48,2.55,1.83,2.15s.42-1.81.4-2.79c0-.33,0-.66.07-1.41,2.85,2.84,5.87.22,8.84.86,2.58.55,5.42-.17,8.12.49a3.5,3.5,0,0,0,2.07.15c2.8-1.4,5.65-.6,8.46-.31,3.89.4,7.7,1.63,11.71.44a4.87,4.87,0,0,1,4.78.8,2.31,2.31,0,0,0,2,.46c5.52-.87,10.93-.16,16.47.44,6.47.7,13.08.56,19.61,1.1a105.37,105.37,0,0,1,12,1.87c2.92.58,5.81,3.32,7.81,5.81,1.75,2.18-1.59,2.07-3.29,3.63,4.13.26,6.87,2.29,9.65,4.49a11.14,11.14,0,0,0-3.85,1.13c2.3,1.68,3.11,3.56,1.87,6.38-.74,1.67-1.58,3.81.14,5.76,1,1.17,0,1.69-1,1.86-.83.13-1.68.07-2.51.2-1.87.28-4,.33-2.63,3.33-2-.12-2.81-1.21-2.85-2.58s-.05-3.35-1.69-3.24c-1,.07-2.07,1.88-2.27,3.46-.15,1.13-.92,1.59-1.56.89-3-3.28-6.4-.81-9.58-.79-1.37,0-2.55.55-3.24-1.11-1.11-2.64-1.84-.18-2.71.23Z"/><path class="cls-1" d="M277.76,225.21c.21-2.44-1.8-3.48-3.14-4.94-.44-.47-1.12-.83-1.52-.19-1.69,2.71-4.73,2-7.12,2.81s-4.58.68-6.1-1.71c-.34-.53-.64-1.11-1.34-.53-2.94,2.47-6.44,1.27-9.73,1.53-.94.08-1.19-.51-1.54-1.16-.89-1.62-1.39-2.32-2.59.07-.37.74-3.52.23-5.37,0a9.89,9.89,0,0,1-2.8-1.29l2.24-.78c-2.12.18-4.66-2.59-5.92.56-1.28,1-2.12-6.35-3.29.14-.2,1.12-1.24.87-2,1-3.75.61-6.79-1.67-10.1-2.68-1.21-.36-1.44-.5-1.94.45-1.27,2.35-3,2.57-5.39,1.57a9.19,9.19,0,0,0-5.71-.71c-2.28.47-5,.5-7-1.63-.55-.56-2.11-3.92-3.27-.12-.11.37-.15.25-.34.13-2.59-1.67-4.43-1.81-7.38-.46-2.26,1-4,1.5-3.56-2.1a2.23,2.23,0,0,0-2.58-2.64c-1.4.18-2.79.87-2.34,2.91.21,1-3.28,3.4-4.09,2.79a9.35,9.35,0,0,0-6.33-1.75c-1.08,0-2-.05-1.93-1.72,0-2.53-1.94-2.57-3.07-1.23-2.44,2.9-5.49,2.65-8.53,2.2-2.18-.33-5.15,2.1-6.54-1.66-.17-.47-1.22-.25-1.36.47-.71,3.68-3.44,2-5.1,1.59-3.34-.86-6.29-2.18-9.63.52-1,.8-4-.2-4.57-2.37a18.12,18.12,0,0,0-2.08-4.12c-.22,2-1.56,3-1.47,5,.07,1.63-2.18,1.76-3.94,1.69-2.3-.09-4.33-2.29-6.9-.59-.92.61-.68-.84-1-1.37-.88-1.59-1.74-1.62-2.46.12-.33.81-.82,1-1.17.65-2.54-2.5-5.26-.18-7.83-.18-1.85,0-3.68,1.51-5.27-.68a1,1,0,0,0-1,0c-2.45,2.92-5.2.94-7.84.52-.84-.13-2-.41-2.38.28-2.37,4.38-6,1.72-9,1.48-2.24-.18-4.45-.7-6.71-.26-.73.14-1.51.47-1.89-.37-.8-1.74-1.93-1.41-3.21-.7a3.55,3.55,0,0,1-3.72-.22c-1.46-.79-3,.14-4.4.6-2.39.81-4.36,1.65-6.89-.3-1.63-1.26-4.32-1-6.59-.48-4,1-7.75-.37-11.56-1.17-1.44-.3-.53-1.93-1.35-3-.49,1.7-1,2.37-3.21,2-2.77-.42-5.74-1.78-8.72-.29a1.63,1.63,0,0,1-2.37-1.44c-.5-3.94-4.59-6.64-3.78-11.05.06-.28-1.41-.78-1.4-1.15,0-1.89,0-4.1,2.65-4.32,6.38-.51,12.7-1.48,19.2-.17,1.05.22,3.89-1,6-1.36,7.17-1.4,14.41-1.72,21.7-2.08,11-.54,22-.6,33-1.74,8.5-.88,17.17-.12,25.75-.48,5.68-.23,11.4-.14,17.08-.33,6.7-.23,13.53-1.56,20.37.21,2.77.72,6-.22,9-.39,2.24-.12,4.44-.14,4.91,2.84.07.46.16,1.05.74,1.05.41,0,1.15-.3,1.17-.51.39-5.12,4.48-2.88,6.74-2.95,6.15-.19,12.18,2.3,18.47,1.22,2.73-.47,5,1.64,7.89,1.46,3.15-.2,6.1-1.61,9.36-1.06,3.06.53,6.33,1.29,9.25.69,3.59-.73,6.69,1.31,10.38.47a22.91,22.91,0,0,1,14.31,1.41c.63.27,1.6-.28,2.42-.35a32.09,32.09,0,0,1,10,.6c5.06,1.18,10.58-1.14,15.39,2,.09.06.29.11.33.06,2.55-2.7,5.89-.74,8.83-1.33,3.21-.65,7.08-.48,9.78,2.87.9-3.24,3-3,5.23-1.76,4.13,2.19,7.66,4.9,10,9.23,1.68,3.12,4,6,7.71,7.21.9.3,2.45.51,2.24,1.91s-1.6.51-2.43.69c-3.6.76-4.66,2.27-4,6,.13.82,1.1,2.26-1,1.33-.61-.27-.86-.23-1,.35-.32,1.46.89,3.44-.68,4.34-1.24.72-2.59,1-2.65,3.22-.52-2.74-1.42-3.75-4-2.94-1.29.4-3-.49-4.19-1.66-.59-.57-.79-2-2.12-1.39s-.43,1.88-.47,2.85a4,4,0,0,1-.44.89c-1.73-1.39-3.42-2.37-5.79-1-1.65.92-2.13-2.19-3.93-2,.35-2.45-1.36-1.33-2.46-1.54-1.43-.27-2.79,1.75-4.37,0-.26-.29.25,2-1.11,2.42Z"/><path class="cls-1" d="M195,388.07c-.2,3.39-1.92,6.34-2.91,9.78-.9-3.2-4.28-3.59-6-5.85-.62-.82-1.84-.42-2.73-.26-1.1.19-.82,1.2-.83,2,0,3-2.37,5.66-.92,8.93,1.65-1.28,1-3.78,2.66-4.88a1.21,1.21,0,0,1,1,1.3c-2.14,4.17,2.18,5.45,3.65,8.18-.21-2.67,2.5-3.3,3.4-5.27.58-1.25,2.13,0,2.81.46a3,3,0,0,1,1.28,3.93c-.34.64-1,1.39-.64,1.84,1.94,2.51-.21,3-1.72,3.94a1.56,1.56,0,0,0-.85,2.1c1.57,3.48,1,6.33-2.18,7.8-2.75,1.29-2.75,2.28-.74,4.35,1.34,1.38,2.55,3.23,1.39,5.5a1.58,1.58,0,0,0,.85,2.37c.4.19,1.06.52,1.25.37a2.21,2.21,0,0,0,.57-2.3c-.89-3.69,2.29-3.65,4.84-5.42-1.06,3.36,1.34,6.48-2,8.76-.66.45-.72,2-.83,3-.5,4.72-.47,4.72,5,4.52-2.78,1-4.07,2.76-6.44,2.3s-3.34,1.2-5,2.48c-2.59,2.05-.3,3.07-.32,4.6,0,3.35,2.89,4.53,3.84,7.15.78-2.87,3.75-5.18,1.66-8.66a2.32,2.32,0,0,1,.2-2c.45-.71,1,.09,1.45.32,2.49,1.2,3.09-1.32,4.65-2.4,0,2,.73,4.13-2,5-.47.15-1.15,1-1.05,1.32,1.06,3.45-.89,6.22-1.9,9.21a3.53,3.53,0,0,0-.14,1.35c3.54.81,1.74,4.79,3.89,6.53,1.23,1-.11,5.66-1.58,6.56-.9.56-2.12.28-2-.5.6-2.91-2.69-3.95-2.81-6.51-.07-1.52-1.51-1.65-2.79-1.4-1.56.31-1.4,1.44-1.05,2.51a6.27,6.27,0,0,1,.15,4.55c-.32.74,1.13,2.22-.59,2.2-1,0-2.46-.24-3-1.55a12.13,12.13,0,0,1-.5-2.1c-.87-4.14-1.8-4.76-6.28-4.21-3.64.44-6.71-2.26-8-5.59-2.44-6.27-2.51-12.88-3.75-19.32a9.81,9.81,0,0,1,0-3.78,10.38,10.38,0,0,0-.73-6.08c-1.46-3.5-2.37-7.37,0-11,.73-1.12.07-1.61-.76-1.87-2.33-.73-2.21-2.36-2.4-4.44-.63-6.87-.32-14-1.9-20.53-1.49-6.13.79-12.53-2.31-18.3-.38-.69-.32-1.75.94-1.85,1.49-.11,1.42-1.73,2.7-2.35-3.67-.64-4.13-2.79-3.64-5.76.61-3.7-.24-7.37-.81-11a6,6,0,0,1,.45-3.5c.78-1.72,2-3.53-.72-4.8-.62-.28-.49-1-.21-1.58,2.16-4.41.91-9.14,1.17-13.7.22-4-.11-4,2.29-6.77-3.36,1-3.53-.75-2.69-2.66,1.45-3.34-.48-7,1-10.13,1-2.15,1.38-3.77-.72-5.31-.25-.18-.52-.78-.42-.91,3-4-1.09-9.19,2.39-13.17,1.16-1.33-.51-3.11-.33-4.84.71-7.08,1.86-14.16,2.26-21.18.33-5.71,1.33-11.5.27-17.5-.78-4.41,1.28-9.34,2.23-14,.19-.94.73-2,.33-2.78-1.74-3.48,1.48-4,3.07-5.69,3.11-3.18,6.08-1.38,9.13-.06s6.47,1.8,9.48,3.63c1.69,1,2.24,4,5,3.23,0,0,.23.41.18.58-1.22,4.1,1.92,6.48,3.66,9.42.75,1.25,2.25,2.3,1.06,4.13s-2.34-.23-3.48.06c-.74.2-1.94-1.32-2.22.5s-.36,4.39,1.29,4.81c3,.76,2.63,3.22,3.55,5,1.19,2.25-1.56,3.54-1.76,5.61-.19,1.85-.94,3.53,1.65,4.24a2.59,2.59,0,0,1,1.86,2.31c-.12,1.51-1.57.34-2.2.64-1.86.87-3.25,3.83-5.74.25.42,5.85,2.88,8.59,6.23,7.41-1.5,1.36,1.77,5.81-3.77,4.89-1-.17-3.42,3.39-3,5.39.65,3.13,2.78,1.35,4.25.25,1.71,2.15-1.91,4.84.91,6.76a20.75,20.75,0,0,0-3.5,4.36c-1.74,2.39-1.87,2.29.85,2.94a2.47,2.47,0,0,1,2.2,2.47c0,.64-.23,1.54.88,1.61.4,0,1-.36,1.07.37s-.62,1.07-1.16,1.16c-4,.66-3,3.91-2.33,5.82,1.09,3.15-.13,4.6-2.66,5.24a2.64,2.64,0,0,0-2.25,2.31c-.3,1.37.18,2.15,1.62,2.67,3.17,1.13,1.38,3.39,1,5.38-1.89-.33-3.44-3.08-5.44-1.29-1.65,1.48-.22,3.29.49,5.26,1-1.06,1.75-3.17,3-.45a5.14,5.14,0,0,0,2,2.32c2.19,1,1.61,2.11.25,3.16-1.83,1.42-2.1,2.38.46,3.11,1.29.37,1.29,1.55,1.34,2.6-1.1,1.3-2.39-2.07-3.17.08a4.82,4.82,0,0,0,.4,4.81c.52.66,1.1,1.26,1.61,1.91s1,1.38,2.05,1c.77-.3.88-.94,1.07-1.69.67-2.61.21-5.24.33-7.85.07-1.31-.61-3.17,2-3.32,1.54-.1.75-1.48.44-2.81,1.64,1.46,1.2,2.85.82,4.12-.09.31-.91.78-.58,1.06,2.69,2.29.08,3.78-.8,5.47-1.25,2.41-2.9,4.79,1.57,6.29-1.85,1.1-3.29.33-4.64.54-4,.61-5.28,2.3-4.41,6.26a1.8,1.8,0,0,0,1.48,1.68,2.78,2.78,0,0,1,.87,5.11c-2,1.15-1.62,2.21-1.21,3.72a3.08,3.08,0,0,1-.39,2.71c-.9,1.4-2.1,3.14,1.41,2.15,1.84-.52,1.51,1,1.08,2.25-.84,2.53-1.19,5.05,1.61,6.76A1.81,1.81,0,0,1,195,388.07Z"/><path class="cls-1" d="M43.66,347.66c-.4,2,1.23,4-.24,6.22-.85,1.31,2.19.34,2.28,2-.48,1.38-2.45.69-3.07,2.15-.66-1.2-.06-3.37-2.07-3.16-2.18.23-.65,2-1,3.09a9.73,9.73,0,0,0,.66,6.31c1.83,4.87-.36,8.86-1.88,13.09-.41,1.16-1.51.94-2.67,1.65,1.65.27,2.57,3.4,4.2.07.56-1.13,1.87-.08,3-.28-3,2.71-6.94,4.78-4.35,9.72a1.4,1.4,0,0,1-.07,1c-.42,1-1.06,2.09.23,2.79s1.82-.57,3-1.54c-.17,2.22.37,3.76-2.22,4.94-1.48.67-2.13,3.62-1,5.72s1.13-1.49,2.3-.25c-1,1.71,1.39,4.11-.91,6-.18.14,0,1.17.23,1.28,3.83,1.8-.26,5.87,2.32,8-2.3,1.75,2.07,5.45-2.19,6.65,2.07,1.71,5.06,3,2.4,6.23a.76.76,0,0,0,0,.67c2,3.18-1,6.91,1.4,10.26,1.18,1.69-2.3-.43-2.22,1.5,0,.28-1.81-.95-1.61.74.08.71-.37,1.47,1,2.17,3.51,1.78,4.21,6.11,1.82,9.26-1.85,2.43-1.44,4.07,1.34,5.15a6.48,6.48,0,0,1,2.91,2.52c.76,1.06,2.14,2,1.3,3.4-1,1.71-2,0-3-.38a1.6,1.6,0,0,0-2.18.61c-1,1.77-1.92,3.64-1.47,5.69.22,1,1,1.69,2.48,1.08,2-.81,1.13.76.84,1.43a3.37,3.37,0,0,0,.57,3.84c1.45,2,.5,7.25-1.27,8.9-4.1,3.81-3.59,6.63,1.67,8.35,1.26.41,2,.84,1.72,2.13-.24,1,1.15,2.74-1.33,2.91-2,.14-1.19,2-1.4,3.13-.11.67.22,1.52-.62,1.89a1.84,1.84,0,0,1-2.2-.8C41,502,40.26,500,41.33,497.88c.68-1.34,1.57-2.47-.16-3.69-.75-.53-1.34-.94-2.21-.27-1.43,1.13-1,2.23-.05,3.38a1.4,1.4,0,0,1-.34,2.19c-1.69,1.33-2.22,3.32-2.93,5.35-3-2.13.65-6.13-2.88-8-.55,2-3,2.08-3.8,4.29-.42,1.19-1.72-.18-1.82-1-.25-2.23-1.57-2.8-3.54-3.28-3.1-.76-4.39-4.14-3.61-7.22.43-1.71.57-4-.21-5.43-3.35-6.33,0-13.45-2.65-19.78a1,1,0,0,1,0-.71c1.52-3.22,2.63-6.34-1.36-8.73-.14-.08.09-.88.23-1.33a23.45,23.45,0,0,0,0-14.9c-.6-1.76.07-3.34.26-4.93.58-4.95-1.08-9.59-1.68-14.36-.46-3.69.87-7.25-.09-10.94-1-3.93,1-8.18.12-11.87-.94-4,0-5.7,4.7-6.77-5.76-.7-5.83-.78-4.26-5.32.76-2.22,3.08-4.43-.72-6.3-.77-.38-.63-2.5.09-3.36,1.43-1.71-1.56-4.57,1.64-5.63-2.9-2.4,1.12-5-.33-7.81-1.17-2.27.94-5.51-1.43-8.08a3.66,3.66,0,0,1,.49-4.14c1.24-1.53.33-4.64-.36-6.33a5.85,5.85,0,0,1,0-4.12c1.12-4.1.12-7.86-.52-11.86a19.16,19.16,0,0,1,1.27-11.67,2.45,2.45,0,0,0,.21-2.37,9.8,9.8,0,0,1-.88-6.56,18.18,18.18,0,0,0,0-12.39c2.63-1.88,1.06-3.41-.17-5.29-.9-1.37,3.12-3,.14-4.75,1.34-10.21.1-20.53,1.55-30.77.61-4.25.11-8.75.19-13.14.07-4,0-8.05,1.89-11.41,1.19-2.15,2.43-5.67,5-5.87,3-.24,6.73.66,8.16,4.1,1,2.37,1.17,5.09,1.56,7.67.14.94-.11,1.89.75,2.63,2.84,2.44,2.68,5.69,2.46,9-.18,2.78,1.89,5,1.7,8-.13,2.17.08,4.79,1.88,6.7a.89.89,0,0,1-.12,1.28c-1.87,2-1.61,4.11-.49,6.49,2,4.23.6,8.52.37,12.87-.12,2.14-.26,5.52.56,7.21,1,2.06,2.24,3.2.81,5.5-.32.52.29,1.93.85,2.62,1.15,1.42,2.21,2.56,0,4.05-.28.19-1.2,2.45,1.1,2.29.63-.05,1.06.52.74.73-3,1.9.08,6.28-3.36,8-.82.4-.88,1.31-.36,2.2s1,2.15,1.6,3.16c3,5.2,3,6-1.16,10.34,0,1.66,3.78.4,2.41,3.72-.65,1.59.11,2.48-2.13,1.56-1.34-.54-1.3,1.52-2.2,2.21s.68,1.55,1.27,1.52c3.48-.2,3.16,4.12,5.87,4.8.34.09.49,1.18.08,1.08-1.4-.32-2.13,1.88-3.75.75-1.15-.81-.73-1.92-1.16-3.09l-4.75,3.05c2.59-.29,3.76,1.12,4.6,3,.66,1.51,1.93,1.59,3.3,1.5ZM37.2,392.83l-.47-.25c-.09.16-.25.34-.24.5s.27.2.41.3Z"/><path class="cls-1" d="M117.21,313.88c2.13-.19,2.61.78,1.71,2.55-.37.72-1.18,1.25-1.47,2-.53,1.34-.74,3,.09,4.11,1,1.29,2.07-.28,3.11-.53a15,15,0,0,0,2.65-1c.77-.35,1.68-.92,2.17.06a3.65,3.65,0,0,1,0,2.4c-.32,1.16-1.29.74-2.08.54s-1.55-.43-2.53-.7c-.32,1.82.74,3.69-.54,5.22-4,.71-6.83,3.48-6.76,6.78,0,.56-.17,1.26.6,1.46a1.16,1.16,0,0,0,1.38-.84c.36-1,.38-2.63,1.58-2.45,3.72.55,3.58-2,3.84-4.3,2.8,0,3,2.2,3.34,4.13s-1.11,2.24-2.61,2.67c-2.23.64-4.15,1.7-2.33,4.54a4.59,4.59,0,0,1,.28.64c-2.82.95-.44,3.83-2.17,5.54s-.67,4.5.13,6.74c.2.57,1.22.93,1.43.35.48-1.33,2.67-2,1.59-3.93-.16-.28-.34-.56-.54-.89,5.23,0,5.58.57,3.11,4.84,1.45.78,3,1.49,3.73,3.1-1.94.15-2.43,2.42-4.18,2.85a7.45,7.45,0,0,0-1.73.45,2.11,2.11,0,0,0-.81,3.35c1.3,1.72,1.07-1.57,2.43-.73.42,2.67-1.51,5.05-1.34,7.7-1.41.51-1.63-1.64-2.9-1a.83.83,0,0,0-.36,1.21c.8,1.64,2.41,1.83,4.06,1.79-.33,1.64-3.67,1.5-2,3.21,1,1.05,1.47,4.81,4.63,2.43.63-.47,1.61-.68,1.29.94a5.31,5.31,0,0,0,1.24,4.53,2.5,2.5,0,0,1,.35,2.94c-.63,1.3-1.84.18-2.47-.13-2.65-1.32-4.8-.58-6.93,1.09-1.36,1.06-1.44,2.29.25,2.45,2.89.29,3,2.39,3.59,5.4,1.33-3.36,3.09-4.8,5.89-4.41l0-.06c-.08,2.62.22,4.69-3.17,6.54-2.6,1.42-1.87,6.11-.79,10,1-2.71,2.54-4.56,3.22-6.94,1.35,3.81-.85,7.46-1.1,11.31-2.51-.58-2.87,1-2.22,3.52a17.51,17.51,0,0,1,.3,2.82c-.11.16-.34.4-.3.47.24.4.5.2.72-.06,2.79.12,3,2,2.53,4-1.38,5.58.2,11.3-1,16.94-.41,1.87,1.24,4.22,2.05,6.31.34.87,1.2.72,1.85.4a7,7,0,0,1,4.13-.46c-1.51.79-2.69,1.78-4,2-1.76.28-3.14.53-2.84,2.69.36,2.62,0,5.55,2.49,7.41.38.29,1.16,0,1.76,0l.1.11c.52,1.77.92,3.47-1.65,4-.41.09-1.09.72-1,.9,1.26,4-2.07,6.88-2.34,10.49-.06.82.42,1.33.63,2,.43,1.35,3.37,2.87,1.61,3.57-2.26.9-2.94,5.27-6.49,3.13a.82.82,0,0,0-1.31.67c-.26,3.31-4.22,4.54-4.07,8.45-2.28-2.07-.06-3.39-.12-5.13-2,.94-4.82-.47-6,3-.69-2.69-2-4.06-4.76-4.14-1.86,0-2.93-1.8-3.41-3.72A92.05,92.05,0,0,1,100,458.8c0-3-.84-5.71-1.42-8.75,1.16,1.64,2,2.41,4,1.29,1.59-.9,1.14-1.71.86-2.86a2.51,2.51,0,0,0-3.48-2c-2.94.94-1.78-1.59-1.6-2.16,1.71-5.33-.91-10.14-1.77-15.11-.32-1.82.45-3.25.36-4.89-.27-4.88-.72-9.76-.7-14.63,0-3.41-.18-6.83.12-10.29.28-3.2,1-7.52-.42-9.93-2.14-3.66-2-6.34-.3-9.63a1.54,1.54,0,0,0-.21-1.36c-1.1-1.33-2.63-6.34-2.92-7.84-1-5-.08-10.08.36-14.94.52-5.7-1.51-10.91-1.35-16.41,0-.72-.38-1.54.6-1.69s1.06.62.93,1.43c-.1.58.23.85.82.79a.88.88,0,0,0,.9-.91c-.18-2.21.67-4.49-1.2-6.58-1.26-1.4-1.09-4.08-.76-5.44.81-3.34-.21-6.42-.15-9.6.14-7.33-.26-14.65-.55-22a191.38,191.38,0,0,1,.58-19.15c.15-2.47-1-5.33,1.62-7.39.23-.18-.66-1.59-.82-2.46-.76-4.24,1.28-8.09,1.86-12.15.3-2.09,4.68-3,6.75-2.1,3.08,1.41,6.63,1.64,9.45,3.75.55.41,1.87.25,1.76.94-.41,2.52,2.29,3.83,2.3,5.78,0,2.89,1.54,5.54,1,8.41a3.53,3.53,0,0,0,.44,2.37c.91,1.91,2.52,4-1.34,4.68-1,.18-1,1.26-.82,2.09a2.57,2.57,0,0,0,2.72,1.91c3.07-1.07,2.33,1.23,2.49,2.58a13.6,13.6,0,0,1-1,7.46c.65,1.2,2.16-1.3,2.82.27.16.37-.25,1.19-.63,1.56-1.31,1.26-2.08-.23-3.06-.71a4.64,4.64,0,0,1-2.57-2.86c-.05-.16-.32-.26-.53-.43-1.64,2.55-1.44,5,1.71,5.4,3,.42,3.08,3.1,4.79,4.43.93.73.22,1.68-.79,2.21-.79.41-1.47-2-2.18-.08-.61,1.64.78,2.29,1.77,3.1.07.07.06.23.09.35-.49,1.07-1.65-.58-2.15.61,0,.12,0,.5,0,.52,1.31.36,2.91,1.09,2.86,2.28-.06,1.54-1.57,2.74-2.87,3.66-.53.38-1.41.24-1.46,1.21-.51.21-1.12.33-1.07,1.07,0,.15.25.41.39.41C117,315.05,117.05,314.4,117.21,313.88Zm8.57,69.68c0-.87-.34-1.19-1.1-1.06-1,.18-1.87.41-1.89,1.65,0,.77.44,1,1.13.9C125,385,125.75,384.62,125.78,383.56Z"/><path class="cls-1" d="M303.58,304.56c-.05.36-.13,1-.15,1-4.15-.36-3.84,3.33-5,5.58-.8,1.56-.31,3.84-3.62,3.25-1.39-.24-1,2.67-1.2,5.19,1.79-4.16,6.48-1.38,8-6,1.69,4.2-2.47,4.25-2.83,6.35-.15.88-2.68-.4-1.93.71,1.07,1.6-.85,4.82,2.63,5a.72.72,0,0,0,.47.38c-.07.77-.13,1.54-.19,2.31l-.2.12c-3.54-1.89-5.24-.43-5.26,3.19,0,2.09-3.32,3.85-1.17,5.77,3.2,2.86,3.78,6.67,4.93,10.35.16.49-.54,1.81.68,1.38s2.24-1.19,2.32.52c.07,1.51.21,3.3-1.59,4.43-3.94,2.46-3.91,2.56-.47,5.33.83.67,1.24,1.37.13,1.89-3.1,1.46-2.3,4.35-1.61,6.25,1.53,4.24,1.22,8.5,1,12.73-.16,2.57,1.13,5,.32,7.58-.37,1.2,1.84.42,1.82,1.82-.71.93-2.32,1.24-2.61,2.6-1,4.69-4.44,4.5-8,4.06-1.9-.24-2,1.33-2.48,2.42-1.12,2.48-.3,6.23-4.53,6.65-.22,0-.32,1.08-.51,1.65-1.46,4.6-4.91,6.64-9.9,5.65-2.59-.52-4.59,1.4-7.1,1.32s-3.17-.5-3.49-3.53c-.53-5-.5-10-1.14-15-.3-2.33,1.81-4.67.79-7.27l.58-.66c.85-.14,1.83,1.47,2.49.09.94-1.94,1.25-4-.18-6-2,.69-1.29,3.13-3.11,4.08-1.64-2.13-1.34-4.76-.66-6.74a11.36,11.36,0,0,0,.33-6.94c-.54-2,1.74-2.77,1.46-4.52a26.44,26.44,0,0,1-.6-6.92c.36-2.78-1.09-6.88.22-7.78,3.3-2.28,0-3.12-.15-4.55a7.73,7.73,0,0,1,0-3.55c.74-2,2.35-3.74.81-6.07-.18-.28.24-1.28.64-1.56,1.7-1.19,1.94-2,.29-3.72-1-1.08.57-3,.61-4.67,0-1.39.31-2.73-.26-4.07-1.12-2.67-1.22-5.07,1.6-6.83,1.54-1,.44-1.78-.07-2.84-.76-1.61-4-4.12,2.65-4.13-3.49-1.69-4.92-3-2.37-5a1.39,1.39,0,0,0,.18-1.34c-2.34-3.8.52-7.85-.61-11.75a7.34,7.34,0,0,1,.74-4.91,5.16,5.16,0,0,0,.19-3.83c-.71-2.3-1.33-4.64.48-6.83.6-.73,0-1.62-.08-2.43s-.58-1.65-.29-2.08c2.95-4.36,1.27-8.59-.31-12.75-.86-2.29.45-3.78,1.55-5.26,1.33-1.79,2.44-.12,3.63.51a1.94,1.94,0,0,0,1.71,0c2.51-2,5.05-2.31,7.83-.6a1.55,1.55,0,0,0,1.32-.21c.6-2.7,3.25-1.17,4.27-2,2.3-1.94,2.88-.19,4.2,1,1.08,1,1.71,2.42,3.54,2.78.67.13,3.24,2.14.53,4-.57.38-.68,1.46-1.09,2.42.65.05,1.18.26,1.53.09,1-.5,1.85-1.21,2.7.23a2.8,2.8,0,0,1,.05,3.29c-.6,1-2.77,2-1.84,2.59,3,2,1.69,5,2.59,7.45,1.14,3,2.68,6.14.49,9.45-.39.6-1,1.48-.42,2.35,1.39,2.22-.15,3.53-1.68,4.39-3.25,1.82-2.08,4.84-2.13,7.38,0,1.71,1.12.85,1.88.16,2.37-2.11,4.59-3.4,5.83,1.05a1.72,1.72,0,0,0,1.89,1.33c.88-.06,1.88.12,1.66,1.29-.29,1.56-1.53.53-2.35.66-.22-.26-.46-.42-.71-.07C303.2,304.19,303.45,304.42,303.58,304.56Z"/><path class="cls-1" d="M199.26,318.15c2.07.79,3.53,1.91.75,3.52-2.11,1.22,0,2.81-.88,4.3-1.35-.9-3.38-.94-3.39-3.3,0-1.59-.74-3.69,2.38-2.75,1.55.46,1.25-.87,1.16-1.79Z"/><path class="cls-1" d="M127.51,488.52c-.14,1.26-1,2.25-1.78,1.93-1.63-.67-1.92-2.48-2.12-4.08-.1-.84.29-1.94,1.31-1.6C126.65,485.35,126.75,487.28,127.51,488.52Z"/><path class="cls-1" d="M307,368.88a3.15,3.15,0,0,1-2.09,4.21c-1.41.57-1.57-.69-2-1.4-.35-.52.16-1.56.27-1.44C305.5,372.86,305.47,368.81,307,368.88Z"/><path class="cls-1" d="M304.81,340.83c0-1.24,1.26-1.58.84-2.58-.28-.69-.38-1.44.44-1.79.66-.28,1,.37,1.37.81a1.27,1.27,0,0,1-.36,2.07Z"/><path class="cls-1" d="M303.79,359.05c.39,1.92,1.8,2.94.63,4.15-.56.57-1.72.21-2.2-.44C301.07,361.21,302.78,360.67,303.79,359.05Z"/><path class="cls-1" d="M198.15,327.41c1.58,1.37,1.33,2.59.16,3.71a.82.82,0,0,1-1.25-.07C195.72,329.32,198.26,328.8,198.15,327.41Z"/><path class="cls-1" d="M47.17,417.33c-.62-.43-1.81-.47-1.65-1.5.1-.72.58-1.67,1.66-1.49a1.67,1.67,0,0,1,1.39,1.8C48.6,417,48.05,417.38,47.17,417.33Z"/><path class="cls-1" d="M144.31,174.06h1.46c.08,1.77-.53,3.65-2.1,4-1.76.36-.79-1-.39-1.76S144,174.81,144.31,174.06Z"/><path class="cls-1" d="M44.07,371.85c1,.91,2.25,1.7,1.39,3.26-.47.87-1.21.52-1.79,0C42.18,373.86,43.41,372.91,44.07,371.85Z"/><path class="cls-1" d="M299.55,328.44l.2-.12c1.18.33,2.55.44,2.7,2.44C301,330.29,299.92,329.88,299.55,328.44Z"/><path class="cls-1" d="M194.7,387.82c.39-.8-.28-2,.77-2.5.49-.25.92.2,1.08.64.52,1.43-.39,1.87-1.55,2.11A1.81,1.81,0,0,0,194.7,387.82Z"/><path class="cls-1" d="M299.94,326a.72.72,0,0,1-.47-.38c.21-.35.4-.82.9-.38C300.42,325.29,300.09,325.75,299.94,326Z"/><path class="cls-1" d="M128,390.91c.19-.55.5-1,1.15-.9,0,0,.13.2.11.29-.19.74-.74.67-1.3.55Z"/><path class="cls-1" d="M45.61,439.88l-.08.26a1,1,0,0,1-.2-.31c0-.05.11-.14.17-.21Z"/><path class="cls-1" d="M43.72,347.7l.21-1.15c.09.05.25.09.27.16a.72.72,0,0,1-.54,1Z"/><path class="cls-1" d="M256.84,176.92l-.15.92-.29-.15.5-.73Z"/><path class="cls-1" d="M276,174.4l-.82.86c-.54-.58-.23-1,.3-1.29Z"/><path class="cls-1" d="M131.53,457.84l.34-.51c.33.37.21.56-.24.62Z"/><path class="cls-1" d="M261.65,388.26l-.24-.78.82.12Z"/><polygon class="cls-1" points="199.28 318.13 199.19 318.06 199.26 318.15 199.28 318.13"/><path class="cls-1" d="M196.16,242.1l-.22.24-.25-.24.25-.24Z"/><path class="cls-1" d="M277.78,225.23l-.24.58c-.56-.44-.1-.49.22-.6Z"/></g></g></svg>